<svg xmlns="http://www.w3.org/2000/svg" width="19.753" height="19.753" viewBox="0 0 19.753 19.753">
  <g id="dashboard" transform="translate(0.125 0.125)">
    <path id="Path_13481" data-name="Path 13481" d="M7.53,6.512H1.425A1.426,1.426,0,0,1,0,5.088V1.425A1.426,1.426,0,0,1,1.425,0H7.53A1.426,1.426,0,0,1,8.955,1.425V5.088A1.426,1.426,0,0,1,7.53,6.512ZM1.425,1.221a.2.2,0,0,0-.2.2V5.088a.2.2,0,0,0,.2.2H7.53a.2.2,0,0,0,.2-.2V1.425a.2.2,0,0,0-.2-.2Zm0,0" fill="#c9d5f8" stroke="#c9d5f8" stroke-width="0.25"/>
    <path id="Path_13482" data-name="Path 13482" d="M7.53,224.729H1.425A1.426,1.426,0,0,1,0,223.3v-8.548a1.426,1.426,0,0,1,1.425-1.425H7.53a1.426,1.426,0,0,1,1.425,1.425V223.3A1.426,1.426,0,0,1,7.53,224.729ZM1.425,214.553a.2.2,0,0,0-.2.2V223.3a.2.2,0,0,0,.2.2H7.53a.2.2,0,0,0,.2-.2v-8.548a.2.2,0,0,0-.2-.2Zm0,0" transform="translate(0 -205.226)" fill="#c9d5f8" stroke="#c9d5f8" stroke-width="0.25"/>
    <path id="Path_13483" data-name="Path 13483" d="M284.862,347.845h-6.105a1.426,1.426,0,0,1-1.425-1.425v-3.663a1.426,1.426,0,0,1,1.425-1.425h6.105a1.426,1.426,0,0,1,1.425,1.425v3.663A1.426,1.426,0,0,1,284.862,347.845Zm-6.105-5.291a.2.2,0,0,0-.2.2v3.663a.2.2,0,0,0,.2.2h6.105a.2.2,0,0,0,.2-.2v-3.663a.2.2,0,0,0-.2-.2Zm0,0" transform="translate(-266.784 -328.342)" fill="#c9d5f8" stroke="#c9d5f8" stroke-width="0.25"/>
    <path id="Path_13484" data-name="Path 13484" d="M284.862,11.4h-6.105a1.426,1.426,0,0,1-1.425-1.425V1.425A1.426,1.426,0,0,1,278.757,0h6.105a1.426,1.426,0,0,1,1.425,1.425V9.972A1.426,1.426,0,0,1,284.862,11.4ZM278.757,1.221a.2.2,0,0,0-.2.2V9.972a.2.2,0,0,0,.2.2h6.105a.2.2,0,0,0,.2-.2V1.425a.2.2,0,0,0-.2-.2Zm0,0" transform="translate(-266.784)" fill="#c9d5f8" stroke="#c9d5f8" stroke-width="0.25"/>
  </g>
</svg>
