<svg xmlns="http://www.w3.org/2000/svg" width="19.999" height="19.999" viewBox="0 0 19.999 19.999">
  <g id="layer1" transform="translate(-0.994 -1037.362)">
    <path id="path3745" d="M10.994,1A3.582,3.582,0,0,0,7.422,4.571c0,.03.008.057.008.086a8.405,8.405,0,0,0-4.751,9.751A3.561,3.561,0,1,0,7.023,20a8.427,8.427,0,0,0,7.943,0,3.561,3.561,0,1,0,4.347-5.594,8.446,8.446,0,0,0-4.757-9.76c0-.028.008-.053.008-.081A3.582,3.582,0,0,0,10.994,1Zm0,1.429A2.143,2.143,0,1,1,8.851,4.571,2.132,2.132,0,0,1,10.994,2.429ZM7.768,6.072a3.549,3.549,0,0,0,6.451,0,7.024,7.024,0,0,1,3.747,7.837,3.507,3.507,0,0,0-.544-.056,3.582,3.582,0,0,0-3.571,3.571,3.521,3.521,0,0,0,.29,1.4,7.032,7.032,0,0,1-6.294,0,3.523,3.523,0,0,0,.29-1.4,3.582,3.582,0,0,0-3.571-3.571,3.506,3.506,0,0,0-.541.056,7.01,7.01,0,0,1,3.744-7.84Zm-3.2,9.213a2.143,2.143,0,1,1-2.143,2.143A2.132,2.132,0,0,1,4.565,15.285Zm12.857,0a2.143,2.143,0,1,1-2.143,2.143A2.132,2.132,0,0,1,17.422,15.285Z" transform="translate(0 1036.362)" fill="#c9d5f8"/>
  </g>
</svg>
