<svg xmlns="http://www.w3.org/2000/svg" width="17.999" height="18" viewBox="0 0 17.999 18"><defs><style>.a{fill:#00fae3;}</style></defs><path class="a" d="M-2028,9a9.01,9.01,0,0,0-9-9,9.018,9.018,0,0,0-7.285,3.721V.857a.857.857,0,0,0-.857-.857.857.857,0,0,0-.857.857V5.451a1.406,1.406,0,0,0,1.406,1.406H-2040a.857.857,0,0,0,.857-.857.857.857,0,0,0-.857-.857h-3.18A7.3,7.3,0,0,1-2037,1.715,7.294,7.294,0,0,1-2029.714,9,7.294,7.294,0,0,1-2037,16.286a7.292,7.292,0,0,1-6.885-4.9.855.855,0,0,0-.435-.49.856.856,0,0,0-.655-.038.857.857,0,0,0-.529,1.09A9.008,9.008,0,0,0-2037,18a9.01,9.01,0,0,0,9-9Zm-10.392,2.866,1.988-1.988a.844.844,0,0,0,.158-.218h0a.841.841,0,0,0,.087-.375V4.219a.844.844,0,0,0-.844-.844.844.844,0,0,0-.844.844V8.932l-1.742,1.741a.844.844,0,0,0,0,1.193.845.845,0,0,0,.6.248.844.844,0,0,0,.6-.246Z" transform="translate(2045.999)"/></svg>