<svg xmlns="http://www.w3.org/2000/svg" width="20.5" height="18" viewBox="0 0 20.5 18">
  <g id="Layer_2" data-name="Layer 2" transform="translate(0.25 0.25)">
    <path id="Icons" d="M6.25,8.75A3.75,3.75,0,1,1,10,12.5,3.75,3.75,0,0,1,6.25,8.75ZM10,0A8.763,8.763,0,0,0,1.341,7.5H0V10H2.5A1.25,1.25,0,0,0,3.75,8.75,6.257,6.257,0,0,1,10,2.5,1.25,1.25,0,0,0,10,0ZM20,7.5H17.5a1.25,1.25,0,0,0-1.25,1.25A6.257,6.257,0,0,1,10,15a1.25,1.25,0,0,0,0,2.5A8.763,8.763,0,0,0,18.659,10H20Z" fill="#c9d5f8" stroke="#2a3a5f" stroke-width="0.5"/>
  </g>
</svg>
