<svg xmlns="http://www.w3.org/2000/svg" width="20" height="19.997" viewBox="0 0 20 19.997">
  <path id="Path_13201" data-name="Path 13201" d="M22,15.57a2.143,2.143,0,0,0-2.143-2.143H17.29a8.753,8.753,0,0,0-.965-3.5L15.287,7.965A4.871,4.871,0,0,0,14.615,7h.953V5.571H14l.7-1.466a1.565,1.565,0,0,0-.08-1.5A1.251,1.251,0,0,0,13.569,2h-6a1.251,1.251,0,0,0-1.055.606,1.565,1.565,0,0,0-.08,1.5l.706,1.465H5.57V7h.953a4.869,4.869,0,0,0-.672.966L4.814,9.928a8.829,8.829,0,0,0-1,4.119v1.837A2.894,2.894,0,0,1,2.8,18.165,2.192,2.192,0,0,0,2,19.888,2.013,2.013,0,0,0,3.894,22h15.96A2.143,2.143,0,0,0,22,19.855v-.714a2.126,2.126,0,0,0-.557-1.428A2.126,2.126,0,0,0,22,16.284Zm-1.428,0v.714a.714.714,0,0,1-.714.714H14.14a.714.714,0,0,1-.714-.714V15.57a.714.714,0,0,1,.714-.714h5.714A.714.714,0,0,1,20.568,15.57ZM7.725,3.486a.133.133,0,0,1-.012-.058h5.714a.133.133,0,0,1-.012.058l-1,2.085H8.727Zm-4.3,16.4a.771.771,0,0,1,.254-.6,4.325,4.325,0,0,0,1.56-3.4V14.047A7.4,7.4,0,0,1,6.076,10.6L7.115,8.633A2.819,2.819,0,0,1,9.557,7h2.024a2.82,2.82,0,0,1,2.443,1.634L15.062,10.6a7.312,7.312,0,0,1,.8,2.831H14.14a2.143,2.143,0,0,0-1.785.963,2.143,2.143,0,0,0-1.785-.963.714.714,0,1,1,.714-.714h1.428A2.143,2.143,0,0,0,11.284,10.7V9.856H9.855V10.7a2.138,2.138,0,0,0,.714,4.154.714.714,0,1,1-.714.714H8.427a2.143,2.143,0,0,0,1.428,2.011v.846h1.428v-.846a2.136,2.136,0,0,0,.853-.561,2.133,2.133,0,0,0,.419.692A2.126,2.126,0,0,0,12,19.141v.714a2.118,2.118,0,0,0,.131.714H3.894A.618.618,0,0,1,3.427,19.888Zm17.141-.033a.714.714,0,0,1-.714.714H14.14a.714.714,0,0,1-.714-.714v-.714a.714.714,0,0,1,.714-.714h5.714a.714.714,0,0,1,.714.714Z" transform="translate(-1.996 -2)" fill="#00fae3"/>
</svg>
