<svg xmlns="http://www.w3.org/2000/svg" width="20" height="20" viewBox="0 0 20 20">
  <path id="Union_1" data-name="Union 1" d="M.5-1123a.5.5,0,0,1-.5-.5v-.429a.5.5,0,0,1,.5-.5H3.465a7.119,7.119,0,0,1,.365-6.469,7.122,7.122,0,0,1,5.456-3.495v-1.465H7.142a5,5,0,0,1-5-5,.715.715,0,0,1,.715-.715H5.714a4.992,4.992,0,0,1,3.882,1.858,5,5,0,0,1,4.69-3.286h2.857a.714.714,0,0,1,.714.715,5.005,5.005,0,0,1-5,5H10.715v2.893a7.119,7.119,0,0,1,5.456,3.495,7.119,7.119,0,0,1,.365,6.469H19.5a.5.5,0,0,1,.5.5v.429a.5.5,0,0,1-.5.5Zm11.459-3.732a2.134,2.134,0,0,1-.373,2.3h3.346a5.716,5.716,0,0,0-.546-6.549,5.713,5.713,0,0,0-6.348-1.7,5.714,5.714,0,0,0-3.752,5.395,5.678,5.678,0,0,0,.782,2.858H8.414a2.131,2.131,0,0,1-.557-1.428H9.285a.714.714,0,0,0,.715.714.714.714,0,0,0,.715-.714.715.715,0,0,0-.715-.715,2.137,2.137,0,0,1-2.11-1.776,2.138,2.138,0,0,1,1.4-2.379v-.846h1.429v.846a2.143,2.143,0,0,1,1.428,2.011H10.715a.715.715,0,0,0-.715-.715.715.715,0,0,0-.715.715A.715.715,0,0,0,10-1128h.011A2.132,2.132,0,0,1,11.959-1126.733Zm-4.817-10.553H9.214a3.578,3.578,0,0,0-3.5-2.857H3.643A3.576,3.576,0,0,0,7.142-1137.286Zm3.643-1.428h2.072a3.578,3.578,0,0,0,3.5-2.858H14.286A3.58,3.58,0,0,0,10.786-1138.714Z" transform="translate(0 1143)" fill="#c9d5f8"/>
</svg>
