<svg xmlns="http://www.w3.org/2000/svg" width="21" height="23.416" viewBox="0 0 21 23.416">
  <path id="Path_13200" data-name="Path 13200" d="M21.889,8.669h0L15.222,2.825a3.333,3.333,0,0,0-4.444,0L4.111,8.669A3.333,3.333,0,0,0,3,11.18v9.711a3.333,3.333,0,0,0,3.333,3.333H19.667A3.333,3.333,0,0,0,23,20.891V11.169a3.333,3.333,0,0,0-1.111-2.5ZM15.222,22H10.778V16.447a1.111,1.111,0,0,1,1.111-1.111h2.222a1.111,1.111,0,0,1,1.111,1.111Zm5.556-1.111A1.111,1.111,0,0,1,19.667,22H17.444V16.447a3.333,3.333,0,0,0-3.333-3.333H11.889a3.333,3.333,0,0,0-3.333,3.333V22H6.333a1.111,1.111,0,0,1-1.111-1.111V11.169a1.111,1.111,0,0,1,.378-.833L12.267,4.5a1.111,1.111,0,0,1,1.467,0L20.4,10.336a1.111,1.111,0,0,1,.378.833Z" transform="translate(-2.5 -1.309)" fill="#00fae3" stroke="#1d2740" stroke-width="1"/>
</svg>
