<svg xmlns="http://www.w3.org/2000/svg" width="24.247" height="19.565" viewBox="0 0 24.247 19.565"><defs><style>.a{fill:#c9d5f8;}</style></defs><g transform="translate(-482 -487.648)"><g transform="translate(482 487.648)"><path class="a" d="M109.409,759.453a12.066,12.066,0,0,1-2.341,7.161,12.644,12.644,0,0,1-2.617,2.617h-.02L99.9,764.7l.01-.01,2.617-2.617,1.877,1.876a8.4,8.4,0,0,0,1.3-4.494c0-.178-.01-.355-.02-.533a8.215,8.215,0,0,0-1.284-3.951l-4.484,4.494L97.3,762.081l-.01.01L90.16,754.96a8.35,8.35,0,0,0-1.274,3.961c-.01.178-.02.355-.02.533a8.312,8.312,0,0,0,1.3,4.494l1.877-1.876,2.617,2.617.01.01-4.533,4.533h-.02a12.645,12.645,0,0,1-2.617-2.617,12.134,12.134,0,0,1-2.341-7.161,11.98,11.98,0,0,1,.573-3.684A12.1,12.1,0,0,1,87.5,752.3v-.02a12.648,12.648,0,0,1,2.617-2.617l2.667,2.667,4.5,4.5,4.494-4.5,2.667-2.667a12.648,12.648,0,0,1,2.617,2.617v.02a11.857,11.857,0,0,1,1.768,3.467A11.981,11.981,0,0,1,109.409,759.453Z" transform="translate(-85.162 -749.666)"/><path class="a" d="M94.726,764.843l.01.01-1.867,1.867h-.02a8.486,8.486,0,0,1-2.617-2.617l1.877-1.876Z" transform="translate(-85.225 -749.821)"/><path class="a" d="M102.709,762.226l1.877,1.876a8.486,8.486,0,0,1-2.617,2.617h-.02l-1.867-1.867.01-.01Z" transform="translate(-85.346 -749.821)"/><path class="a" d="M104.464,754.984V755L99.98,759.5l-2.617,2.617-.01.01-7.131-7.131.01-.01a8.485,8.485,0,0,1,2.617-2.617l4.5,4.5,4.494-4.5A8.485,8.485,0,0,1,104.464,754.984Z" transform="translate(-85.225 -749.7)"/><path class="a" d="M99.947,759.463l-2.617,2.617-.01-.01L94.7,759.453l-7.17-7.17a12.648,12.648,0,0,1,2.617-2.617l2.667,2.667,4.5,4.5,2.617,2.617Z" transform="translate(-85.191 -749.666)"/><path class="a" d="M107.253,766.769a12.649,12.649,0,0,1-2.617,2.617l-2.667-2.667-1.877-1.877,2.617-2.617Z" transform="translate(-85.346 -749.821)"/><path class="a" d="M92.075,762.226l2.617,2.617-1.877,1.877-2.667,2.667a12.648,12.648,0,0,1-2.617-2.617Z" transform="translate(-85.191 -749.821)"/><path class="a" d="M107.187,752.283l-2.667,2.667-4.494,4.5-2.617,2.617-.01.01-2.617-2.617,2.627-2.627,4.494-4.5,2.667-2.667A12.648,12.648,0,0,1,107.187,752.283Z" transform="translate(-85.281 -749.666)"/><path class="a" d="M90.167,754.993a8.35,8.35,0,0,0-1.274,3.96L85.742,755.8a12.1,12.1,0,0,1,1.768-3.467Z" transform="translate(-85.169 -749.699)"/><path class="a" d="M109.077,755.8l-3.151,3.151A8.216,8.216,0,0,0,104.642,755l2.667-2.667A11.857,11.857,0,0,1,109.077,755.8Z" transform="translate(-85.403 -749.699)"/></g></g></svg>