<svg xmlns="http://www.w3.org/2000/svg" width="132" height="72.35" viewBox="0 0 132 72.35">
  <g id="Group_16133" data-name="Group 16133" transform="translate(-437.814 -487.647)">
    <g id="Group_16104" data-name="Group 16104" transform="translate(482 487.648)">
      <path id="Path_13190" data-name="Path 13190" d="M127.791,766.874a21.214,21.214,0,0,1-4.115,12.589,22.233,22.233,0,0,1-4.6,4.6h-.035l-7.97-7.97.017-.017,4.6-4.6,3.3,3.3a14.763,14.763,0,0,0,2.292-7.9c0-.313-.017-.625-.035-.938a14.444,14.444,0,0,0-2.257-6.946l-7.883,7.9-4.6,4.6-.017.017L93.948,758.973a14.68,14.68,0,0,0-2.24,6.963c-.017.313-.035.625-.035.938a14.613,14.613,0,0,0,2.292,7.9l3.3-3.3,4.6,4.6.017.017-7.97,7.97h-.035a22.234,22.234,0,0,1-4.6-4.6,21.333,21.333,0,0,1-4.115-12.589,21.063,21.063,0,0,1,1.007-6.477,21.279,21.279,0,0,1,3.108-6.095v-.035a22.236,22.236,0,0,1,4.6-4.6l4.688,4.688,7.918,7.918,7.9-7.918,4.688-4.688a22.235,22.235,0,0,1,4.6,4.6v.035a20.848,20.848,0,0,1,3.108,6.095A21.063,21.063,0,0,1,127.791,766.874Z" transform="translate(-85.162 -749.666)" fill="#c9d5f8"/>
      <path id="Path_13191" data-name="Path 13191" d="M98.133,766.827l.017.017-3.282,3.282h-.035a14.92,14.92,0,0,1-4.6-4.6l3.3-3.3Z" transform="translate(-81.428 -740.417)" fill="#c9d5f8"/>
      <path id="Path_13192" data-name="Path 13192" d="M104.7,762.226l3.3,3.3a14.92,14.92,0,0,1-4.6,4.6h-.035l-3.282-3.282.017-.017Z" transform="translate(-74.175 -740.417)" fill="#c9d5f8"/>
      <path id="Path_13193" data-name="Path 13193" d="M115.261,756.968V757l-7.883,7.9-4.6,4.6-.017.017L90.222,756.985l.017-.017a14.917,14.917,0,0,1,4.6-4.6l7.918,7.918,7.9-7.918A14.917,14.917,0,0,1,115.261,756.968Z" transform="translate(-81.436 -747.678)" fill="#c9d5f8"/>
      <path id="Path_13194" data-name="Path 13194" d="M109.359,766.891l-4.6,4.6-.017-.017-4.6-4.6L87.532,754.267a22.236,22.236,0,0,1,4.6-4.6l4.688,4.688,7.918,7.918,4.6,4.6Z" transform="translate(-83.417 -749.666)" fill="#c9d5f8"/>
      <path id="Path_13195" data-name="Path 13195" d="M112.681,770.214a22.234,22.234,0,0,1-4.6,4.6l-4.688-4.688-3.3-3.3,4.6-4.6Z" transform="translate(-74.167 -740.417)" fill="#c9d5f8"/>
      <path id="Path_13196" data-name="Path 13196" d="M95.52,762.226l4.6,4.6-3.3,3.3-4.688,4.688a22.235,22.235,0,0,1-4.6-4.6Z" transform="translate(-83.417 -740.417)" fill="#c9d5f8"/>
      <path id="Path_13197" data-name="Path 13197" d="M116.591,754.267l-4.688,4.688-7.9,7.918-4.6,4.6-.017.017-4.6-4.6,4.619-4.619,7.9-7.918,4.688-4.688A22.236,22.236,0,0,1,116.591,754.267Z" transform="translate(-78.078 -749.666)" fill="#c9d5f8"/>
      <path id="Path_13198" data-name="Path 13198" d="M93.521,757.007a14.681,14.681,0,0,0-2.24,6.963l-5.539-5.539a21.278,21.278,0,0,1,3.108-6.095Z" transform="translate(-84.735 -747.7)" fill="#c9d5f8"/>
      <path id="Path_13199" data-name="Path 13199" d="M112.439,758.431,106.9,763.97a14.444,14.444,0,0,0-2.257-6.946l4.688-4.688A20.847,20.847,0,0,1,112.439,758.431Z" transform="translate(-70.817 -747.7)" fill="#c9d5f8"/>
    </g>
    <text id="MoneyPot" transform="translate(437.815 554.998)" fill="#c9d5f8" font-size="20" font-family="Sans-serif, Montserrat-Black, Montserrat" font-weight="800" letter-spacing="0.1em"><tspan x="4" y="0">MONEYPOT</tspan></text>
  </g>
</svg>
