<svg xmlns="http://www.w3.org/2000/svg" xmlns:xlink="http://www.w3.org/1999/xlink" width="1365" height="741.183" viewBox="0 0 1365 741.183">
  <defs>
    <linearGradient id="linear-gradient" x1="0.506" y1="-0.181" x2="0.5" y2="1.222" gradientUnits="objectBoundingBox">
      <stop offset="0" stop-color="#00fae3" stop-opacity="0.392"/>
      <stop offset="1" stop-color="#007d72" stop-opacity="0.02"/>
    </linearGradient>
    <linearGradient id="linear-gradient-2" x1="0.5" x2="0.5" y2="1.417" gradientUnits="objectBoundingBox">
      <stop offset="0" stop-color="#1f5f76"/>
      <stop offset="1" stop-color="#9fe6ff" stop-opacity="0"/>
    </linearGradient>
  </defs>
  <g id="Group_16649" data-name="Group 16649" transform="translate(-431 -276.817)">
    <path id="Path_13205" data-name="Path 13205" d="M1668.2-4935.675s129.34-216.485,308.141-240.313,239.445,222.208,407.064,145,245.949-376.617,408.4-456.877,241.4,135.838,241.4,135.838v416.349Z" transform="translate(-1237.198 5953.675)" fill="url(#linear-gradient)"/>
    <path id="Path_13206" data-name="Path 13206" d="M1572-5177.233s121.083,217.334,300.963,181.559,152.836-299.834,418.556-324.658c154.117-14.4,298.253,200.691,432.628,268.953,96.953,49.251,211.695-43.59,211.695-43.59v181.2H1572Z" transform="translate(-1141 5930)" fill="url(#linear-gradient-2)"/>
    <g id="Group_16650" data-name="Group 16650">
      <g id="freepik--Coin--inject-82" transform="translate(1341.84 12.127)">
        <g id="freepik--Con--inject-82">
          <g id="freepik--coin--inject-82-2" data-name="freepik--coin--inject-82">
            <path id="Path_13335" data-name="Path 13335" d="M315.17,284.84l3-6.22-13-7.52h0a20.571,20.571,0,0,0-4.91-2.05c-.6-.16-1.21-.29-1.83-.4a24.181,24.181,0,0,0-9.17.25,30.742,30.742,0,0,0-3.31.89,32.37,32.37,0,0,0-3.42,1.32,41.406,41.406,0,0,0-4.39,2.24c-1.55.91-3.07,1.91-4.58,3-1.13.82-2.25,1.7-3.35,2.64C254,292.65,241.24,317,238,340.42c-.23,1.6-.4,3.18-.53,4.76-.19,2.26-.28,4.51-.28,6.73,0,1.82.08,3.58.22,5.27.12,1.48.28,2.9.5,4.27s.46,2.69.76,4h0a38.211,38.211,0,0,0,3.79,10c.35.62.71,1.23,1.09,1.81a24.24,24.24,0,0,0,5.77,6.24,22.21,22.21,0,0,0,2.13,1.39h0L263.78,392l2.73-5.69c.72-.17,1.46-.35,2.19-.58a39.481,39.481,0,0,0,8.58-3.8,52.416,52.416,0,0,0,5-3.35,63.937,63.937,0,0,0,6.18-5.27c13.51-13,24.15-33.33,28.05-53.58a90.621,90.621,0,0,0,1.27-9c.23-2.48.34-4.95.33-7.38a63.29,63.29,0,0,0-.86-10.47A45.143,45.143,0,0,0,315.17,284.84Z" fill="#317186"/>
            <path id="Path_13336" data-name="Path 13336" d="M241,326.57l26.45,15.27,3.48-10.06-26.47-15.29C243.12,319.8,242,323.17,241,326.57Z" fill="#fff" opacity="0.25"/>
            <path id="Path_13337" data-name="Path 13337" d="M305.11,271.1h0a20.571,20.571,0,0,0-4.91-2.05c-.6-.16-1.21-.29-1.83-.4a24.181,24.181,0,0,0-9.17.25c-.4.08-.81.19-1.22.29l27.21,15.72a.14.14,0,0,0,0-.07l3-6.22Z" fill="#fff" opacity="0.25"/>
            <path id="Path_13338" data-name="Path 13338" d="M302.28,309.72l3.49-4.18L266.11,282.7c-1.26,1.25-2.5,2.57-3.7,3.93Z" fill="#fff" opacity="0.25"/>
            <path id="Path_13339" data-name="Path 13339" d="M254,297.86l34.36,19.84,3.78-9.89-32-18.48a97.173,97.173,0,0,0-6.14,8.53Z" fill="#fff" opacity="0.25"/>
            <path id="Path_13340" data-name="Path 13340" d="M305.11,271.1h0a20.571,20.571,0,0,0-4.91-2.05c-.6-.16-1.21-.29-1.83-.4a24.181,24.181,0,0,0-9.17.25,30.742,30.742,0,0,0-3.31.89,32.37,32.37,0,0,0-3.42,1.32,41.406,41.406,0,0,0-4.39,2.24c-1.55.91-3.07,1.91-4.58,3-1.13.82-2.25,1.7-3.35,2.64-15.07,12.72-27.15,34.71-31.34,56.59L294,367.45a107.62,107.62,0,0,0,22.56-47.7,90.629,90.629,0,0,0,1.27-9c.23-2.48.34-4.95.33-7.38a63.294,63.294,0,0,0-.86-10.47,45.139,45.139,0,0,0-2.12-8.08l3-6.22Z" fill="#11ebd8" opacity="0.4"/>
            <path id="Path_13341" data-name="Path 13341" d="M263.78,392l2.73-5.69c.72-.17,1.46-.35,2.19-.58a39.481,39.481,0,0,0,8.58-3.8,52.416,52.416,0,0,0,5-3.35,63.937,63.937,0,0,0,6.18-5.27,79.354,79.354,0,0,0,5.49-5.88l-55.18-31.86c-.31,1.61-.58,3.22-.8,4.83s-.4,3.18-.53,4.76c-.19,2.26-.28,4.51-.28,6.73,0,1.82.08,3.58.22,5.27.12,1.48.28,2.9.5,4.27s.46,2.69.76,4h0a38.21,38.21,0,0,0,3.79,10c.35.62.71,1.23,1.09,1.81a24.24,24.24,0,0,0,5.77,6.24,22.2,22.2,0,0,0,2.13,1.39h0Z" transform="translate(10)" opacity="0.1"/>
            <path id="Path_13342" data-name="Path 13342" d="M242.47,375.46c.35.62.71,1.23,1.09,1.81a24.239,24.239,0,0,0,5.77,6.24,22.2,22.2,0,0,0,2.13,1.39h0l12.32,7.1,2.73-5.69h.11l.2-2.33-27.41-15.83a36.66,36.66,0,0,0,3.06,7.31Z" opacity="0.1"/>
            <path id="Path_13343" data-name="Path 13343" d="M331.23,301a43.811,43.811,0,0,0-3.05-10.4,26.8,26.8,0,0,0-8-10.58,20.37,20.37,0,0,0-7.18-3.55c-.6-.16-1.21-.29-1.83-.4a24.181,24.181,0,0,0-9.17.25,30.759,30.759,0,0,0-3.31.89,35.565,35.565,0,0,0-3.42,1.31,44.616,44.616,0,0,0-4.39,2.25c-1.55.91-3.07,1.91-4.58,3-1.13.82-2.24,1.7-3.34,2.64-16.19,13.65-28.92,38-32.15,61.42-.22,1.59-.4,3.18-.53,4.76-.19,2.26-.28,4.51-.27,6.73,0,1.82.08,3.58.21,5.27.12,1.47.29,2.9.5,4.27s.47,2.69.77,4h0a38.56,38.56,0,0,0,3.78,10c.35.62.71,1.23,1.09,1.81a24.619,24.619,0,0,0,5.78,6.24,20.55,20.55,0,0,0,11.4,4.09,26.72,26.72,0,0,0,9.11-1.19,40,40,0,0,0,8.58-3.8,52.41,52.41,0,0,0,5-3.35,64,64,0,0,0,6.19-5.27c13.5-13,24.14-33.34,28-53.58a89.353,89.353,0,0,0,1.27-9c.23-2.48.34-4.95.33-7.37a63.289,63.289,0,0,0-.79-10.44Z" fill="#00fae3"/>
            <path id="Path_13344" data-name="Path 13344" d="M331.23,301a43.811,43.811,0,0,0-3.05-10.4,26.8,26.8,0,0,0-8-10.58,20.37,20.37,0,0,0-7.18-3.55c-.6-.16-1.21-.29-1.83-.4a24.181,24.181,0,0,0-9.17.25,30.759,30.759,0,0,0-3.31.89,35.565,35.565,0,0,0-3.42,1.31,44.616,44.616,0,0,0-4.39,2.25c-1.55.91-3.07,1.91-4.58,3-1.13.82-2.24,1.7-3.34,2.64-16.19,13.65-28.92,38-32.15,61.42-.22,1.59-.4,3.18-.53,4.76-.19,2.26-.28,4.51-.27,6.73,0,1.82.08,3.58.21,5.27.12,1.47.29,2.9.5,4.27s.47,2.69.77,4h0a38.56,38.56,0,0,0,3.78,10c.35.62.71,1.23,1.09,1.81a24.619,24.619,0,0,0,5.78,6.24,20.55,20.55,0,0,0,11.4,4.09,26.72,26.72,0,0,0,9.11-1.19,40,40,0,0,0,8.58-3.8,52.41,52.41,0,0,0,5-3.35,64,64,0,0,0,6.19-5.27c13.5-13,24.14-33.34,28-53.58a89.353,89.353,0,0,0,1.27-9c.23-2.48.34-4.95.33-7.37a63.289,63.289,0,0,0-.79-10.44Z" fill="#175867"/>
            <path id="Path_13345" data-name="Path 13345" d="M251.61,343q-.48,2.43-.81,4.86c-.22,1.59-.4,3.18-.53,4.76-.19,2.26-.28,4.51-.27,6.73,0,1.82.08,3.58.21,5.27.12,1.47.29,2.9.5,4.27s.47,2.69.77,4h0a38.561,38.561,0,0,0,3.78,10c.35.62.71,1.23,1.09,1.81a24.619,24.619,0,0,0,5.78,6.24,20.55,20.55,0,0,0,11.4,4.09,26.72,26.72,0,0,0,9.11-1.19,40,40,0,0,0,8.58-3.8,51.678,51.678,0,0,0,4.48-3Z" transform="translate(-12.809 -7)" opacity="0.05"/>
            <path id="Path_13346" data-name="Path 13346" d="M252.24,375.64a36.4,36.4,0,0,0,3,7.21c.35.62.71,1.23,1.09,1.81a24.62,24.62,0,0,0,5.78,6.24,20.46,20.46,0,0,0,9.22,3.85Z" opacity="0.05"/>
            <path id="Path_13347" data-name="Path 13347" d="M257.22,323.9c-1.32,3.3-2.47,6.67-3.45,10.06l48,48,.66-.61a80,80,0,0,0,5.88-6.37Z" fill="#fff" opacity="0.15"/>
            <path id="Path_13348" data-name="Path 13348" d="M272.92,296.72a97.179,97.179,0,0,0-6.15,8.53l52.86,52.86q2.58-4.85,4.7-10Z" fill="#fff" opacity="0.15"/>
            <path id="Path_13349" data-name="Path 13349" d="M278.92,290.08c-1.27,1.26-2.52,2.58-3.73,4l50.54,50.54q1.05-2.835,2-5.72Z" fill="#fff" opacity="0.15"/>
            <path id="Path_13350" data-name="Path 13350" d="M332,307.78h0c-.05-1-.13-1.93-.22-2.87a7.5,7.5,0,0,0-.1-.94c-.04-.31-.07-.63-.12-1-.09-.69-.19-1.38-.3-2a43.809,43.809,0,0,0-3.05-10.4,26.8,26.8,0,0,0-8-10.58,20.37,20.37,0,0,0-7.18-3.55c-.6-.16-1.21-.29-1.83-.4a24.18,24.18,0,0,0-9.17.25c-.4.08-.81.19-1.22.29Z" fill="#fff" opacity="0.15"/>
            <path id="Path_13351" data-name="Path 13351" d="M321.63,317.71c0,21.61-12.6,46.55-28.53,57.16-.68.45-1.37.88-2.06,1.28-16.89,9.75-30.58-.59-30.58-23.12s13.69-48.69,30.58-58.44c.69-.4,1.38-.76,2.06-1.09C309,285.7,321.63,296.11,321.63,317.71Z" fill="#00fae3"/>
            <path id="Path_13352" data-name="Path 13352" d="M321.63,317.71c0,21.61-12.6,46.55-28.53,57.16-.68.45-1.37.88-2.06,1.28-16.89,9.75-30.58-.59-30.58-23.12s13.69-48.69,30.58-58.44c.69-.4,1.38-.76,2.06-1.09C309,285.7,321.63,296.11,321.63,317.71Z" opacity="0.4"/>
            <path id="Path_13353" data-name="Path 13353" d="M320.27,318.5v2.1c-.78,20.14-12.51,42.72-27.23,52.52l-.4.26c-.51.33-1,.66-1.56,1a25.27,25.27,0,0,1-9.18,3.34c-6.86.93-12.59-2.07-16.15-8.22a32,32,0,0,1-3.78-13.94c-.07-1.06-.11-2.15-.11-3.27s0-2.07.09-3.12a60.481,60.481,0,0,1,.74-6.64c2.58-15.56,10.88-31.43,21.44-41a42.7,42.7,0,0,1,4.66-3.68c.75-.52,1.52-1,2.29-1.45a14.887,14.887,0,0,1,2-1l.55-.26a19.78,19.78,0,0,1,12.09-1.92c6.15,1.18,10.89,6.09,13.16,13.92a41.331,41.331,0,0,1,1.39,11.36Z" fill="#00fae3"/>
            <path id="Path_13354" data-name="Path 13354" d="M320.27,318.5v2.1c-.78,20.14-12.51,42.72-27.23,52.52l-.4.26c-.51.33-1,.66-1.56,1a25.27,25.27,0,0,1-9.18,3.34c-6.86.93-12.59-2.07-16.15-8.22a32,32,0,0,1-3.78-13.94c-.07-1.06-.11-2.15-.11-3.27s0-2.07.09-3.12a60.481,60.481,0,0,1,.74-6.64c2.58-15.56,10.88-31.43,21.44-41a42.7,42.7,0,0,1,4.66-3.68c.75-.52,1.52-1,2.29-1.45a14.887,14.887,0,0,1,2-1l.55-.26a19.78,19.78,0,0,1,12.09-1.92c6.15,1.18,10.89,6.09,13.16,13.92a41.331,41.331,0,0,1,1.39,11.36Z" opacity="0.5"/>
            <path id="Path_13355" data-name="Path 13355" d="M315.38,317.78v-2.1a41.33,41.33,0,0,0-1.47-11.4,21.59,21.59,0,0,0-6.29-10.56,15.411,15.411,0,0,0-2-.54,19.78,19.78,0,0,0-12.09,1.92l-.55.26c-.64.32-1.3.66-2,1a19.531,19.531,0,0,0-2.29,1.45,42.7,42.7,0,0,0-4.66,3.68c-10.56,9.53-18.86,25.4-21.44,41a60.481,60.481,0,0,0-.74,6.64c-.06,1.05-.09,2.08-.09,3.12a32.681,32.681,0,0,0,.11,3.27,32,32,0,0,0,3.78,13.94,18.561,18.561,0,0,0,3.85,4.73,16,16,0,0,0,7.45.67,25.27,25.27,0,0,0,9.18-3.34,16.427,16.427,0,0,0,1.56-1l.4-.26C302.87,360.5,314.6,337.92,315.38,317.78Z" fill="#00fae3"/>
            <path id="Path_13356" data-name="Path 13356" d="M315.38,317.78v-2.1a41.33,41.33,0,0,0-1.47-11.4,21.59,21.59,0,0,0-6.29-10.56,15.411,15.411,0,0,0-2-.54,19.78,19.78,0,0,0-12.09,1.92l-.55.26c-.64.32-1.3.66-2,1a19.531,19.531,0,0,0-2.29,1.45,42.7,42.7,0,0,0-4.66,3.68c-10.56,9.53-18.86,25.4-21.44,41a60.481,60.481,0,0,0-.74,6.64c-.06,1.05-.09,2.08-.09,3.12a32.681,32.681,0,0,0,.11,3.27,32,32,0,0,0,3.78,13.94,18.561,18.561,0,0,0,3.85,4.73,16,16,0,0,0,7.45.67,25.27,25.27,0,0,0,9.18-3.34,16.427,16.427,0,0,0,1.56-1l.4-.26C302.87,360.5,314.6,337.92,315.38,317.78Z" opacity="0.25"/>
            <path id="Path_13357" data-name="Path 13357" d="M311.16,276c-17.66-2-32,12.64-41.62,25.79-13.85,20.41-22.62,46.26-17.83,71v-.05c1.56,6.87,4.71,13.77,10.43,18.14-5.85-4.29-9.24-11.18-10.88-18.1v.05c-4.41-20.23,1.14-41.49,10.4-59.59C271.56,295.34,288.36,273.6,311.16,276Z" fill="#f5f5f5"/>
            <g id="freepik--money-sign--inject-82">
              <path id="Path_13358" data-name="Path 13358" d="M297.8,323.92l-5.87-3.39,11.35-9.68,5.87,3.38Z" opacity="0.35"/>
              <path id="Path_13359" data-name="Path 13359" d="M301.4,326.16c-3-2.13-8.21-.52-12.62.87-1.06.35-2,.67-2.89.94a5.42,5.42,0,0,0-.43,2c0,3.42,2.9,2.49,9.2.41a47.169,47.169,0,0,1,6.5-1.71c.2,1.74,1.4,3.32,6.11.84Z" opacity="0.35"/>
              <path id="Path_13360" data-name="Path 13360" d="M286.87,370.65,281,367.26v-6.93l5.87,3.4Z" opacity="0.45"/>
              <path id="Path_13361" data-name="Path 13361" d="M296.81,344.35c0,2.76-2.07,5.21-5.14,7-4.89,2.84-6.79.52-7.21-1.74l-1-.6a11,11,0,0,0,2.38-1.06,10.42,10.42,0,0,0,4.77-5.05C294.2,341.72,296.81,341.25,296.81,344.35Z" opacity="0.35"/>
              <path id="Path_13362" data-name="Path 13362" d="M275,361.33a3.89,3.89,0,0,0-2.14-.52,11,11,0,0,1-.32-1.1l-5.86-3.39a7.24,7.24,0,0,0,3.29,5h0l5.86,3.38S276.8,362.51,275,361.33Z" opacity="0.35"/>
              <path id="Path_13363" data-name="Path 13363" d="M294.66,330.42c-6.3,2.08-9.2,3-9.2-.41a5.42,5.42,0,0,1,.43-2c-4.3,1.33-6.3,1.49-6.3-1.35,0-2.08,1.41-4.66,5.3-6.92,4.14-2.4,6.46-1.84,7,.83l11.35-9.69a1.164,1.164,0,0,0-.16-.41,7.08,7.08,0,0,0,2-.78l-4.68-2.78-.45-.27h-.07a7.91,7.91,0,0,0-4.46-.73,19.589,19.589,0,0,0-5.87,1.61v-.12l5.87-3.42-5.87-3.39h0l-4,2.31-5.3,3.1h0v6.92c-7.95,5.79-12.92,13.35-12.92,21.53,0,3.73,1,5.84,2.63,6.91h.08a3.618,3.618,0,0,0,.43.24l4.91,2.77a3.56,3.56,0,0,0-.3-2.21,27.912,27.912,0,0,0,4.6-1c6-1.8,11.27-4.63,11.27-.21a5.56,5.56,0,0,1-.36,1.94c3.62-1.18,6.23-1.65,6.23,1.45,0,2.76-2.07,5.21-5.14,7-4.89,2.84-6.79.52-7.21-1.74h0l-1-.6-4.83-2.79-11.93,10.1,5.86,3.39a10.431,10.431,0,0,0,.91,2.5,19,19,0,0,0,7.56-1.88v2.81l9.28-1.27v-6.93c8-5.92,13.58-13.9,13.58-22.24a11.459,11.459,0,0,0-.66-4.18A32.579,32.579,0,0,0,294.66,330.42Z" fill="#00fae3"/>
              <path id="Path_13364" data-name="Path 13364" d="M294.66,330.42c-6.3,2.08-9.2,3-9.2-.41a5.42,5.42,0,0,1,.43-2c-4.3,1.33-6.3,1.49-6.3-1.35,0-2.08,1.41-4.66,5.3-6.92,4.14-2.4,6.46-1.84,7,.83l11.35-9.69a1.164,1.164,0,0,0-.16-.41,7.08,7.08,0,0,0,2-.78l-4.68-2.78-.45-.27h-.07a7.91,7.91,0,0,0-4.46-.73,19.589,19.589,0,0,0-5.87,1.61v-.12l5.87-3.42-5.87-3.39h0l-4,2.31-5.3,3.1h0v6.92c-7.95,5.79-12.92,13.35-12.92,21.53,0,3.73,1,5.84,2.63,6.91h.08a3.618,3.618,0,0,0,.43.24l4.91,2.77a3.56,3.56,0,0,0-.3-2.21,27.912,27.912,0,0,0,4.6-1c6-1.8,11.27-4.63,11.27-.21a5.56,5.56,0,0,1-.36,1.94c3.62-1.18,6.23-1.65,6.23,1.45,0,2.76-2.07,5.21-5.14,7-4.89,2.84-6.79.52-7.21-1.74h0l-1-.6-4.83-2.79-11.93,10.1,5.86,3.39a10.431,10.431,0,0,0,.91,2.5,19,19,0,0,0,7.56-1.88v2.81l9.28-1.27v-6.93c8-5.92,13.58-13.9,13.58-22.24a11.459,11.459,0,0,0-.66-4.18A32.579,32.579,0,0,0,294.66,330.42Z" opacity="0.15"/>
              <g id="Group_16130" data-name="Group 16130" opacity="0.2">
                <path id="Path_13365" data-name="Path 13365" d="M280.25,312.89c-4.34,3.55-8.29,7.71-10.6,12.79a21.84,21.84,0,0,0-2,8,14,14,0,0,0,.25,4.14,5.68,5.68,0,0,0,2.07,3.5,5.64,5.64,0,0,1-2.41-3.41,14.489,14.489,0,0,1-.47-4.25,21.43,21.43,0,0,1,1.92-8.29,28.229,28.229,0,0,1,4.78-7,34.7,34.7,0,0,1,6.46-5.48Z"/>
              </g>
              <path id="Path_13366" data-name="Path 13366" d="M303.2,328.52a32.579,32.579,0,0,0-8.54,1.9c-6.3,2.08-9.2,3-9.2-.41a5.42,5.42,0,0,1,.43-2c.67-1.6,2.18-3.31,4.87-4.88,4.14-2.41,6.46-1.83,7,.83l11.35-9.69c-1.09-3.27-3.3-5-6.59-5.05a17.58,17.58,0,0,0-7.08,1.66v-6.92l-5.87,3.41-3.49,2v6.92c-7.95,5.79-12.92,13.36-12.92,21.53a11.92,11.92,0,0,0,.71,4.46c1.75,4.38,6.56,3.78,11.63,2.29,1.78-.53,3.5-1.16,5-1.66,3.62-1.18,6.23-1.65,6.23,1.45,0,2.76-2.07,5.21-5.14,7-4.89,2.84-6.79.52-7.21-1.74l-11.93,10.1a10.19,10.19,0,0,0,.91,2.49c1.55,2.92,4.32,3.72,7.56,3.29a22.629,22.629,0,0,0,5.87-1.76v6.92l9.27-5.35v-7c8-5.91,13.59-13.9,13.59-22.24C309.73,330.08,306.88,328.43,303.2,328.52Z" fill="#00fae3"/>
              <g id="Group_16131" data-name="Group 16131" opacity="0.1">
                <path id="Path_13367" data-name="Path 13367" d="M303.2,328.52a32.579,32.579,0,0,0-8.54,1.9c-6.3,2.08-9.2,3-9.2-.41a5.42,5.42,0,0,1,.43-2c.67-1.6,2.18-3.31,4.87-4.88,4.14-2.41,6.46-1.83,7,.83l11.35-9.69c-1.09-3.27-3.3-5-6.59-5.05a17.58,17.58,0,0,0-7.08,1.66v-6.92l-5.87,3.41-3.49,2v6.92c-7.95,5.79-12.92,13.36-12.92,21.53a11.92,11.92,0,0,0,.71,4.46c1.75,4.38,6.56,3.78,11.63,2.29,1.78-.53,3.5-1.16,5-1.66,3.62-1.18,6.23-1.65,6.23,1.45,0,2.76-2.07,5.21-5.14,7-4.89,2.84-6.79.52-7.21-1.74l-11.93,10.1a10.19,10.19,0,0,0,.91,2.49c1.55,2.92,4.32,3.72,7.56,3.29a22.629,22.629,0,0,0,5.87-1.76v6.92l9.27-5.35v-7c8-5.91,13.59-13.9,13.59-22.24C309.73,330.08,306.88,328.43,303.2,328.52Z" fill="#23304e"/>
              </g>
              <path id="Path_13368" data-name="Path 13368" d="M283.63,350.31l-7.31,6.2,8.13,8.14c.8-.27,1.61-.57,2.42-.92v3.33l2.27,2.28,7-4v-2.47Z" fill="#fff" opacity="0.15"/>
              <path id="Path_13369" data-name="Path 13369" d="M303.2,328.52a32.579,32.579,0,0,0-8.54,1.9l-2,.67,14.66,14.66a21.43,21.43,0,0,0,2.45-9.66,13.8,13.8,0,0,0-.27-2.83l-4.65-4.65A9.372,9.372,0,0,0,303.2,328.52Z" fill="#fff" opacity="0.15"/>
              <path id="Path_13370" data-name="Path 13370" d="M287.32,325.79a14.3,14.3,0,0,1,3.44-2.7c4.14-2.41,6.46-1.83,7,.83l1.25-1.07-12.93-12.93v6.36a41.3,41.3,0,0,0-4.51,3.8Z" fill="#fff" opacity="0.15"/>
              <path id="Path_13371" data-name="Path 13371" d="M298.6,309.76a23.746,23.746,0,0,0-3.12,1.08v-4.19l-1.73-1.73-4.14,2.41-.72.42,12.83,12.82,4.15-3.54Z" fill="#fff" opacity="0.15"/>
              <path id="Path_13372" data-name="Path 13372" d="M279,345.64,273.35,340a9.52,9.52,0,0,0,.56,2.24,5.2,5.2,0,0,0,5.09,3.4Z" fill="#fff" opacity="0.15"/>
              <path id="Path_13373" data-name="Path 13373" d="M286.12,316.28l-5.87-3.39v-6.93l5.87,3.4Z" fill="#00fae3"/>
              <path id="Path_13374" data-name="Path 13374" d="M286.12,316.28l-5.87-3.39v-6.93l5.87,3.4Z" opacity="0.35"/>
              <path id="Path_13375" data-name="Path 13375" d="M296.14,358.33l.91-.72c.29-.23.64-.51,1-.85s.83-.7,1.29-1.14,1-.89,1.48-1.41l.78-.8.78-.86c.27-.28.53-.59.79-.9s.52-.63.78-1c.49-.66,1-1.33,1.46-2s.89-1.42,1.31-2.13a16.893,16.893,0,0,0,1.07-2.18c.3-.73.56-1.44.83-2.12.1-.34.2-.68.29-1,.05-.16.1-.32.14-.48s.07-.32.1-.47a14.485,14.485,0,0,0,.32-1.69c.07-.51.15-.95.16-1.32a7.817,7.817,0,0,1,.07-1.16v1.16a20.7,20.7,0,0,1-.38,3,2.88,2.88,0,0,1-.09.48c-.03.17-.09.32-.13.48-.09.34-.18.68-.28,1-.25.68-.46,1.42-.8,2.14s-.68,1.47-1.06,2.21a19.111,19.111,0,0,1-1.31,2.16c-.48.69-1,1.39-1.49,2-.26.33-.53.64-.79,1a8,8,0,0,1-.8.91l-.8.86-.8.78a15.575,15.575,0,0,1-1.5,1.38c-.5.38-.94.78-1.34,1.11s-.75.6-1.05.81Z" fill="#fff"/>
              <path id="Path_13376" data-name="Path 13376" d="M286.12,309.36l9.36-5.44v6.92l-.63-5.8Z" fill="#fafafa"/>
              <path id="Path_13377" data-name="Path 13377" d="M286.87,363.73l.49,6.01,8.78-4.44-9.27,5.35Z" fill="#fafafa"/>
            </g>
          </g>
          <path id="Path_13378" data-name="Path 13378" d="M304,274.99l.78-10.3.79,10.3,10.3.78-10.3.79-.79,10.3-.78-10.3-10.3-.79Z" fill="#fff"/>
          <path id="Path_13379" data-name="Path 13379" d="M312.08,283.44l.38-4.99.38,4.99,4.99.38-4.99.38-.38,4.99-.38-4.99-4.99-.38Z" fill="#fff"/>
        </g>
      </g>
      <g id="freepik--Coin--inject-82-3" data-name="freepik--Coin--inject-82" transform="translate(1247.559 86.811)">
        <g id="freepik--Con--inject-82-2" data-name="freepik--Con--inject-82" transform="translate(237.19 264.69)">
          <g id="freepik--coin--inject-82-4" data-name="freepik--coin--inject-82" transform="translate(0 2.766)">
            <path id="Path_13335-2" data-name="Path 13335" d="M296.488,280.884l2.281-4.73-9.886-5.718h0a15.644,15.644,0,0,0-3.734-1.559c-.456-.122-.92-.221-1.392-.3a18.387,18.387,0,0,0-6.973.19,23.376,23.376,0,0,0-2.517.677,24.6,24.6,0,0,0-2.6,1,31.482,31.482,0,0,0-3.338,1.7c-1.179.692-2.335,1.452-3.483,2.281-.859.624-1.711,1.293-2.547,2.008-12.327,10.387-22.03,28.9-24.493,46.713-.175,1.217-.3,2.418-.4,3.62-.144,1.719-.213,3.43-.213,5.118,0,1.384.061,2.722.167,4.007.091,1.125.213,2.205.38,3.247s.35,2.046.578,3.042h0a29.058,29.058,0,0,0,2.882,7.6c.266.471.54.935.829,1.376a18.432,18.432,0,0,0,4.388,4.745,16.888,16.888,0,0,0,1.62,1.057h0l9.376,5.407,2.076-4.327c.548-.129,1.11-.266,1.665-.441a30.022,30.022,0,0,0,6.524-2.89,39.859,39.859,0,0,0,3.8-2.547,48.616,48.616,0,0,0,4.7-4.007c10.273-9.886,18.364-25.345,21.33-40.744a68.907,68.907,0,0,0,.966-6.844c.175-1.886.259-3.764.251-5.612A48.126,48.126,0,0,0,298.07,287,34.327,34.327,0,0,0,296.488,280.884Z" transform="translate(-237.19 -268.327)" fill="#317186"/>
            <path id="Path_13336-2" data-name="Path 13336" d="M241,324.155l20.113,11.612,2.646-7.65L243.631,316.49C242.612,319.007,241.76,321.57,241,324.155Z" transform="translate(-238.103 -279.866)" fill="#fff" opacity="0.25"/>
            <path id="Path_13337-2" data-name="Path 13337" d="M301.006,270.436h0a15.644,15.644,0,0,0-3.734-1.559c-.456-.122-.92-.221-1.392-.3a18.387,18.387,0,0,0-6.973.19c-.3.061-.616.144-.928.221l20.691,11.954a.106.106,0,0,0,0-.053l2.281-4.73Z" transform="translate(-249.358 -268.327)" fill="#fff" opacity="0.25"/>
            <path id="Path_13338-2" data-name="Path 13338" d="M292.728,303.247l2.654-3.179L265.224,282.7c-.958.951-1.9,1.954-2.814,2.988Z" transform="translate(-243.232 -271.771)" fill="#fff" opacity="0.25"/>
            <path id="Path_13339-2" data-name="Path 13339" d="M254,295.816,280.128,310.9,283,303.383,258.669,289.33A73.9,73.9,0,0,0,254,295.816Z" transform="translate(-241.217 -273.359)" fill="#fff" opacity="0.25"/>
            <path id="Path_13340-2" data-name="Path 13340" d="M289.226,270.436h0a15.644,15.644,0,0,0-3.734-1.559c-.456-.122-.92-.221-1.392-.3a18.387,18.387,0,0,0-6.973.19,23.377,23.377,0,0,0-2.517.677,24.607,24.607,0,0,0-2.6,1,31.485,31.485,0,0,0-3.338,1.7c-1.179.692-2.335,1.452-3.483,2.281q-1.289.935-2.547,2.008c-11.46,9.673-20.646,26.394-23.832,43.033L280.778,343.7a81.838,81.838,0,0,0,17.155-36.272,68.924,68.924,0,0,0,.966-6.844c.175-1.886.259-3.764.251-5.612a48.13,48.13,0,0,0-.654-7.962,34.326,34.326,0,0,0-1.612-6.144l2.281-4.73Z" transform="translate(-237.578 -268.327)" fill="#11ebd8" opacity="0.4"/>
            <path id="Path_13341-2" data-name="Path 13341" d="M257.4,378.481l2.076-4.327c.547-.129,1.11-.266,1.665-.441a30.021,30.021,0,0,0,6.524-2.89,39.863,39.863,0,0,0,3.8-2.547,48.62,48.62,0,0,0,4.7-4.007,60.342,60.342,0,0,0,4.175-4.471l-41.96-24.227c-.236,1.224-.441,2.449-.608,3.673s-.3,2.418-.4,3.62c-.144,1.719-.213,3.43-.213,5.118,0,1.384.061,2.722.167,4.007.091,1.125.213,2.205.38,3.247s.35,2.046.578,3.042h0a29.056,29.056,0,0,0,2.882,7.6c.266.471.54.935.829,1.376A18.433,18.433,0,0,0,246.384,372a16.883,16.883,0,0,0,1.62,1.057h0Z" transform="translate(-229.578 -284.437)" opacity="0.1"/>
            <path id="Path_13342-2" data-name="Path 13342" d="M241.737,373.709c.266.471.54.935.829,1.376a18.432,18.432,0,0,0,4.388,4.745,16.882,16.882,0,0,0,1.62,1.057h0l9.368,5.4,2.076-4.327h.084l.152-1.772L239.41,368.15A27.876,27.876,0,0,0,241.737,373.709Z" transform="translate(-237.722 -292.242)" opacity="0.1"/>
            <path id="Path_13343-2" data-name="Path 13343" d="M311.772,294.95a33.315,33.315,0,0,0-2.319-7.908A20.379,20.379,0,0,0,303.369,279a15.49,15.49,0,0,0-5.46-2.7c-.456-.122-.92-.221-1.392-.3a18.387,18.387,0,0,0-6.973.19,23.39,23.39,0,0,0-2.517.677,27.051,27.051,0,0,0-2.6,1,33.932,33.932,0,0,0-3.338,1.711c-1.179.692-2.335,1.452-3.483,2.281q-1.289.935-2.54,2.008c-12.311,10.38-21.992,28.9-24.448,46.706-.167,1.209-.3,2.418-.4,3.62-.144,1.719-.213,3.43-.205,5.118,0,1.384.061,2.722.16,4.007.091,1.118.221,2.205.38,3.247s.357,2.046.586,3.042h0a29.322,29.322,0,0,0,2.874,7.6c.266.471.54.935.829,1.376a18.721,18.721,0,0,0,4.4,4.745,15.627,15.627,0,0,0,8.669,3.11,20.318,20.318,0,0,0,6.927-.9,30.416,30.416,0,0,0,6.525-2.89,39.857,39.857,0,0,0,3.8-2.547,48.667,48.667,0,0,0,4.707-4.007c10.266-9.886,18.357-25.353,21.292-40.744a67.941,67.941,0,0,0,.966-6.844c.175-1.886.259-3.764.251-5.6A48.13,48.13,0,0,0,311.772,294.95Z" transform="translate(-240.261 -270.105)" fill="#00fae3"/>
            <path id="Path_13344-2" data-name="Path 13344" d="M311.772,294.95a33.315,33.315,0,0,0-2.319-7.908A20.379,20.379,0,0,0,303.369,279a15.49,15.49,0,0,0-5.46-2.7c-.456-.122-.92-.221-1.392-.3a18.387,18.387,0,0,0-6.973.19,23.39,23.39,0,0,0-2.517.677,27.051,27.051,0,0,0-2.6,1,33.932,33.932,0,0,0-3.338,1.711c-1.179.692-2.335,1.452-3.483,2.281q-1.289.935-2.54,2.008c-12.311,10.38-21.992,28.9-24.448,46.706-.167,1.209-.3,2.418-.4,3.62-.144,1.719-.213,3.43-.205,5.118,0,1.384.061,2.722.16,4.007.091,1.118.221,2.205.38,3.247s.357,2.046.586,3.042h0a29.322,29.322,0,0,0,2.874,7.6c.266.471.54.935.829,1.376a18.721,18.721,0,0,0,4.4,4.745,15.627,15.627,0,0,0,8.669,3.11,20.318,20.318,0,0,0,6.927-.9,30.416,30.416,0,0,0,6.525-2.89,39.857,39.857,0,0,0,3.8-2.547,48.667,48.667,0,0,0,4.707-4.007c10.266-9.886,18.357-25.353,21.292-40.744a67.941,67.941,0,0,0,.966-6.844c.175-1.886.259-3.764.251-5.6A48.13,48.13,0,0,0,311.772,294.95Z" transform="translate(-240.261 -270.105)" fill="#175867"/>
            <path id="Path_13345-2" data-name="Path 13345" d="M251.224,343q-.365,1.848-.616,3.7c-.167,1.209-.3,2.418-.4,3.62-.144,1.719-.213,3.43-.205,5.118,0,1.384.061,2.722.16,4.007.091,1.118.221,2.205.38,3.247s.357,2.046.586,3.042h0a29.323,29.323,0,0,0,2.874,7.6c.266.471.54.935.829,1.376a18.721,18.721,0,0,0,4.4,4.745,15.627,15.627,0,0,0,8.669,3.11,20.32,20.32,0,0,0,6.927-.9,30.417,30.417,0,0,0,6.524-2.89,39.3,39.3,0,0,0,3.407-2.281Z" transform="translate(-249.999 -291.54)" opacity="0.05"/>
            <path id="Path_13346-2" data-name="Path 13346" d="M252.24,375.64a27.681,27.681,0,0,0,2.281,5.483c.266.471.54.935.829,1.376a18.722,18.722,0,0,0,4.4,4.745,15.558,15.558,0,0,0,7.011,2.928Z" transform="translate(-240.795 -294.036)" opacity="0.05"/>
            <path id="Path_13347-2" data-name="Path 13347" d="M256.393,323.9c-1,2.509-1.878,5.072-2.623,7.65l36.5,36.5.5-.464a60.838,60.838,0,0,0,4.471-4.844Z" transform="translate(-241.162 -281.641)" fill="#fff" opacity="0.15"/>
            <path id="Path_13348-2" data-name="Path 13348" d="M271.447,296.72a73.892,73.892,0,0,0-4.677,6.486l40.2,40.2q1.962-3.688,3.574-7.6Z" transform="translate(-244.276 -275.129)" fill="#fff" opacity="0.15"/>
            <path id="Path_13349-2" data-name="Path 13349" d="M278.026,290.08c-.966.958-1.916,1.962-2.836,3.042l38.432,38.432q.8-2.156,1.521-4.35Z" transform="translate(-246.294 -273.539)" fill="#fff" opacity="0.15"/>
            <path id="Path_13350-2" data-name="Path 13350" d="M324.528,300.1h0c-.038-.76-.1-1.468-.167-2.182a5.705,5.705,0,0,0-.076-.715c-.03-.236-.053-.479-.091-.76-.068-.525-.144-1.049-.228-1.521a33.311,33.311,0,0,0-2.319-7.908,20.379,20.379,0,0,0-6.083-8.045,15.49,15.49,0,0,0-5.46-2.7c-.456-.122-.92-.221-1.392-.3a18.387,18.387,0,0,0-6.973.19c-.3.061-.616.145-.928.221Z" transform="translate(-252.432 -270.098)" fill="#fff" opacity="0.15"/>
            <path id="Path_13351-2" data-name="Path 13351" d="M306.975,311.292c0,16.433-9.581,35.4-21.7,43.466-.517.342-1.042.669-1.566.973-12.844,7.414-23.254-.449-23.254-17.581s10.41-37.025,23.254-44.439c.525-.3,1.049-.578,1.566-.829C297.371,286.951,306.975,294.867,306.975,311.292Z" transform="translate(-242.765 -273.74)" fill="#00fae3"/>
            <path id="Path_13352-2" data-name="Path 13352" d="M306.975,311.292c0,16.433-9.581,35.4-21.7,43.466-.517.342-1.042.669-1.566.973-12.844,7.414-23.254-.449-23.254-17.581s10.41-37.025,23.254-44.439c.525-.3,1.049-.578,1.566-.829C297.371,286.951,306.975,294.867,306.975,311.292Z" transform="translate(-242.765 -273.74)" opacity="0.4"/>
            <path id="Path_13353-2" data-name="Path 13353" d="M306.277,312.385v1.6c-.593,15.315-9.513,32.486-20.706,39.938l-.3.2c-.388.251-.76.5-1.186.76a19.216,19.216,0,0,1-6.981,2.54c-5.217.707-9.574-1.574-12.281-6.251a24.333,24.333,0,0,1-2.874-10.6c-.053-.806-.084-1.635-.084-2.487s0-1.574.068-2.373a46,46,0,0,1,.563-5.049c1.962-11.832,8.273-23.9,16.3-31.178a32.469,32.469,0,0,1,3.544-2.8c.57-.4,1.156-.76,1.741-1.1a11.323,11.323,0,0,1,1.521-.76l.418-.2a15.041,15.041,0,0,1,9.194-1.46c4.677.9,8.281,4.631,10.007,10.585a31.43,31.43,0,0,1,1.057,8.638Z" transform="translate(-243.1 -274.232)" fill="#00fae3"/>
            <path id="Path_13354-2" data-name="Path 13354" d="M306.277,312.385v1.6c-.593,15.315-9.513,32.486-20.706,39.938l-.3.2c-.388.251-.76.5-1.186.76a19.216,19.216,0,0,1-6.981,2.54c-5.217.707-9.574-1.574-12.281-6.251a24.333,24.333,0,0,1-2.874-10.6c-.053-.806-.084-1.635-.084-2.487s0-1.574.068-2.373a46,46,0,0,1,.563-5.049c1.962-11.832,8.273-23.9,16.3-31.178a32.469,32.469,0,0,1,3.544-2.8c.57-.4,1.156-.76,1.741-1.1a11.323,11.323,0,0,1,1.521-.76l.418-.2a15.041,15.041,0,0,1,9.194-1.46c4.677.9,8.281,4.631,10.007,10.585a31.43,31.43,0,0,1,1.057,8.638Z" transform="translate(-243.1 -274.232)" opacity="0.5"/>
            <path id="Path_13355-2" data-name="Path 13355" d="M302.534,311.828v-1.6a31.43,31.43,0,0,0-1.118-8.669,16.418,16.418,0,0,0-4.783-8.03,11.724,11.724,0,0,0-1.521-.411,15.041,15.041,0,0,0-9.194,1.46l-.418.2c-.487.243-.989.5-1.521.76a14.847,14.847,0,0,0-1.741,1.1,32.469,32.469,0,0,0-3.544,2.8c-8.03,7.247-14.342,19.315-16.3,31.178a46,46,0,0,0-.563,5.049c-.046.8-.068,1.582-.068,2.373a24.857,24.857,0,0,0,.084,2.487,24.334,24.334,0,0,0,2.874,10.6,14.115,14.115,0,0,0,2.928,3.6,12.167,12.167,0,0,0,5.665.509,19.215,19.215,0,0,0,6.981-2.54,12.494,12.494,0,0,0,1.186-.76l.3-.2C293.021,344.314,301.941,327.143,302.534,311.828Z" transform="translate(-243.076 -274.223)" fill="#00fae3"/>
            <path id="Path_13356-2" data-name="Path 13356" d="M302.534,311.828v-1.6a31.43,31.43,0,0,0-1.118-8.669,16.418,16.418,0,0,0-4.783-8.03,11.724,11.724,0,0,0-1.521-.411,15.041,15.041,0,0,0-9.194,1.46l-.418.2c-.487.243-.989.5-1.521.76a14.847,14.847,0,0,0-1.741,1.1,32.469,32.469,0,0,0-3.544,2.8c-8.03,7.247-14.342,19.315-16.3,31.178a46,46,0,0,0-.563,5.049c-.046.8-.068,1.582-.068,2.373a24.857,24.857,0,0,0,.084,2.487,24.334,24.334,0,0,0,2.874,10.6,14.115,14.115,0,0,0,2.928,3.6,12.167,12.167,0,0,0,5.665.509,19.215,19.215,0,0,0,6.981-2.54,12.494,12.494,0,0,0,1.186-.76l.3-.2C293.021,344.314,301.941,327.143,302.534,311.828Z" transform="translate(-243.076 -274.223)" opacity="0.25"/>
            <path id="Path_13357-2" data-name="Path 13357" d="M296.441,275.956c-13.429-1.521-24.334,9.612-31.649,19.611-10.532,15.52-17.2,35.177-13.558,53.99v-.038c1.186,5.224,3.582,10.471,7.931,13.794-4.449-3.262-7.026-8.5-8.273-13.764v.038c-3.354-15.383.867-31.55,7.908-45.314C266.328,290.662,279.1,274.131,296.441,275.956Z" transform="translate(-240.192 -270.121)" fill="#f5f5f5"/>
            <g id="freepik--money-sign--inject-82-2" data-name="freepik--money-sign--inject-82" transform="translate(22.425 24.533)">
              <path id="Path_13358-2" data-name="Path 13358" d="M296.394,320.789l-4.464-2.578,8.631-7.361,4.464,2.57Z" transform="translate(-272.729 -303.048)" opacity="0.35"/>
              <path id="Path_13359-2" data-name="Path 13359" d="M297.581,325.913c-2.281-1.62-6.243-.4-9.6.662-.806.266-1.521.509-2.2.715a4.121,4.121,0,0,0-.327,1.521c0,2.6,2.205,1.893,7,.312a35.875,35.875,0,0,1,4.943-1.3c.152,1.323,1.065,2.525,4.646.639Z" transform="translate(-271.179 -306.469)" opacity="0.35"/>
              <path id="Path_13360-2" data-name="Path 13360" d="M285.464,368.178,281,365.6v-5.27l4.464,2.585Z" transform="translate(-270.111 -314.902)" opacity="0.45"/>
              <path id="Path_13361-2" data-name="Path 13361" d="M293.612,343.787c0,2.1-1.574,3.962-3.909,5.323-3.719,2.16-5.163.4-5.483-1.323l-.76-.456a8.367,8.367,0,0,0,1.81-.806,7.924,7.924,0,0,0,3.627-3.84C291.627,341.787,293.612,341.429,293.612,343.787Z" transform="translate(-270.7 -310.51)" opacity="0.35"/>
              <path id="Path_13362-2" data-name="Path 13362" d="M273.007,360.13a2.958,2.958,0,0,0-1.627-.4,8.369,8.369,0,0,1-.243-.836l-4.456-2.578a5.505,5.505,0,0,0,2.5,3.8h0l4.456,2.57A2.1,2.1,0,0,0,273.007,360.13Z" transform="translate(-266.68 -313.941)" opacity="0.35"/>
              <path id="Path_13363-2" data-name="Path 13363" d="M287.964,323.274c-4.791,1.582-7,2.281-7-.312a4.122,4.122,0,0,1,.327-1.521c-3.27,1.011-4.791,1.133-4.791-1.027,0-1.582,1.072-3.544,4.03-5.262,3.148-1.825,4.912-1.4,5.323.631l8.631-7.369a.886.886,0,0,0-.122-.312,5.384,5.384,0,0,0,1.521-.593l-3.559-2.114-.342-.205h-.053a6.015,6.015,0,0,0-3.392-.555,14.9,14.9,0,0,0-4.464,1.224v-.091l4.464-2.6-4.464-2.578h0l-3.042,1.757-4.03,2.357h0v5.262c-6.045,4.4-9.825,10.152-9.825,16.372,0,2.836.76,4.441,2,5.255h.061a2.758,2.758,0,0,0,.327.182l3.734,2.106a2.708,2.708,0,0,0-.228-1.681,21.23,21.23,0,0,0,3.5-.76c4.563-1.369,8.57-3.521,8.57-.16a4.228,4.228,0,0,1-.274,1.475c2.753-.9,4.737-1.255,4.737,1.1,0,2.1-1.574,3.962-3.909,5.323-3.719,2.16-5.163.4-5.483-1.323h0l-.76-.456-3.673-2.122-9.072,7.68,4.456,2.578a7.932,7.932,0,0,0,.692,1.9,14.449,14.449,0,0,0,5.749-1.43v2.137l7.057-.966v-5.27c6.083-4.5,10.327-10.57,10.327-16.912a8.713,8.713,0,0,0-.5-3.179A24.775,24.775,0,0,0,287.964,323.274Z" transform="translate(-266.687 -300.59)" fill="#00fae3"/>
              <path id="Path_13364-2" data-name="Path 13364" d="M287.964,323.274c-4.791,1.582-7,2.281-7-.312a4.122,4.122,0,0,1,.327-1.521c-3.27,1.011-4.791,1.133-4.791-1.027,0-1.582,1.072-3.544,4.03-5.262,3.148-1.825,4.912-1.4,5.323.631l8.631-7.369a.886.886,0,0,0-.122-.312,5.384,5.384,0,0,0,1.521-.593l-3.559-2.114-.342-.205h-.053a6.015,6.015,0,0,0-3.392-.555,14.9,14.9,0,0,0-4.464,1.224v-.091l4.464-2.6-4.464-2.578h0l-3.042,1.757-4.03,2.357h0v5.262c-6.045,4.4-9.825,10.152-9.825,16.372,0,2.836.76,4.441,2,5.255h.061a2.758,2.758,0,0,0,.327.182l3.734,2.106a2.708,2.708,0,0,0-.228-1.681,21.23,21.23,0,0,0,3.5-.76c4.563-1.369,8.57-3.521,8.57-.16a4.228,4.228,0,0,1-.274,1.475c2.753-.9,4.737-1.255,4.737,1.1,0,2.1-1.574,3.962-3.909,5.323-3.719,2.16-5.163.4-5.483-1.323h0l-.76-.456-3.673-2.122-9.072,7.68,4.456,2.578a7.932,7.932,0,0,0,.692,1.9,14.449,14.449,0,0,0,5.749-1.43v2.137l7.057-.966v-5.27c6.083-4.5,10.327-10.57,10.327-16.912a8.713,8.713,0,0,0-.5-3.179A24.775,24.775,0,0,0,287.964,323.274Z" transform="translate(-266.687 -300.59)" opacity="0.15"/>
              <g id="Group_16130-2" data-name="Group 16130" transform="translate(0.304 9.353)" opacity="0.2">
                <path id="Path_13365-2" data-name="Path 13365" d="M277.095,312.89a27.906,27.906,0,0,0-8.061,9.726,16.609,16.609,0,0,0-1.521,6.083,10.648,10.648,0,0,0,.19,3.148,4.319,4.319,0,0,0,1.574,2.661,4.289,4.289,0,0,1-1.833-2.593,11.018,11.018,0,0,1-.357-3.232,16.3,16.3,0,0,1,1.46-6.3,21.467,21.467,0,0,1,3.635-5.323,26.389,26.389,0,0,1,4.912-4.167Z" transform="translate(-267.08 -312.89)"/>
              </g>
              <path id="Path_13366-2" data-name="Path 13366" d="M295.833,322.636a24.774,24.774,0,0,0-6.494,1.445c-4.791,1.582-7,2.281-7-.312a4.121,4.121,0,0,1,.327-1.521,8.326,8.326,0,0,1,3.7-3.711c3.148-1.833,4.912-1.392,5.323.631l8.631-7.369a5.041,5.041,0,0,0-5.011-3.84,13.368,13.368,0,0,0-5.384,1.262V303.96l-4.464,2.593-2.654,1.521v5.262c-6.045,4.4-9.825,10.159-9.825,16.372a9.064,9.064,0,0,0,.54,3.391c1.331,3.331,4.988,2.874,8.844,1.741,1.354-.4,2.661-.882,3.8-1.262,2.753-.9,4.737-1.255,4.737,1.1,0,2.1-1.574,3.962-3.909,5.323-3.719,2.16-5.163.4-5.483-1.323l-9.072,7.68a7.747,7.747,0,0,0,.692,1.893c1.179,2.22,3.285,2.829,5.749,2.5a17.208,17.208,0,0,0,4.464-1.338v5.262l7.049-4.068v-5.323c6.083-4.494,10.334-10.57,10.334-16.912C300.8,323.822,298.632,322.568,295.833,322.636Z" transform="translate(-268.062 -301.397)" fill="#00fae3"/>
              <g id="Group_16131-2" data-name="Group 16131" transform="translate(4.388 2.563)" opacity="0.1">
                <path id="Path_13367-2" data-name="Path 13367" d="M295.833,322.636a24.774,24.774,0,0,0-6.494,1.445c-4.791,1.582-7,2.281-7-.312a4.121,4.121,0,0,1,.327-1.521,8.326,8.326,0,0,1,3.7-3.711c3.148-1.833,4.912-1.392,5.323.631l8.631-7.369a5.041,5.041,0,0,0-5.011-3.84,13.368,13.368,0,0,0-5.384,1.262V303.96l-4.464,2.593-2.654,1.521v5.262c-6.045,4.4-9.825,10.159-9.825,16.372a9.064,9.064,0,0,0,.54,3.391c1.331,3.331,4.988,2.874,8.844,1.741,1.354-.4,2.661-.882,3.8-1.262,2.753-.9,4.737-1.255,4.737,1.1,0,2.1-1.574,3.962-3.909,5.323-3.719,2.16-5.163.4-5.483-1.323l-9.072,7.68a7.747,7.747,0,0,0,.692,1.893c1.179,2.22,3.285,2.829,5.749,2.5a17.208,17.208,0,0,0,4.464-1.338v5.262l7.049-4.068v-5.323c6.083-4.494,10.334-10.57,10.334-16.912C300.8,323.822,298.632,322.568,295.833,322.636Z" transform="translate(-272.45 -303.96)" fill="#23304e"/>
              </g>
              <path id="Path_13368-2" data-name="Path 13368" d="M281.879,350.31l-5.559,4.715,6.182,6.19c.608-.205,1.224-.433,1.84-.7v2.532l1.726,1.734,5.323-3.042v-1.878Z" transform="translate(-268.989 -312.501)" fill="#fff" opacity="0.15"/>
              <path id="Path_13369-2" data-name="Path 13369" d="M300.675,328.519a24.775,24.775,0,0,0-6.494,1.445l-1.521.51,11.148,11.148a16.3,16.3,0,0,0,1.863-7.346,10.492,10.492,0,0,0-.205-2.152l-3.536-3.536A7.127,7.127,0,0,0,300.675,328.519Z" transform="translate(-272.904 -307.28)" fill="#fff" opacity="0.15"/>
              <path id="Path_13370-2" data-name="Path 13370" d="M285.942,321.988a10.875,10.875,0,0,1,2.616-2.053c3.148-1.833,4.912-1.392,5.323.631l.951-.814L285,309.92v4.836a31.407,31.407,0,0,0-3.43,2.89Z" transform="translate(-270.247 -302.825)" fill="#fff" opacity="0.15"/>
              <path id="Path_13371-2" data-name="Path 13371" d="M296.274,308.6a18.06,18.06,0,0,0-2.373.821v-3.186l-1.316-1.316-3.148,1.833-.548.319,9.756,9.749,3.156-2.692Z" transform="translate(-272.001 -301.627)" fill="#fff" opacity="0.15"/>
              <path id="Path_13372-2" data-name="Path 13372" d="M277.646,344.289,273.35,340a7.238,7.238,0,0,0,.426,1.7,3.954,3.954,0,0,0,3.871,2.586Z" transform="translate(-268.278 -310.031)" fill="#fff" opacity="0.15"/>
              <path id="Path_13373-2" data-name="Path 13373" d="M284.714,313.808l-4.464-2.578v-5.27l4.464,2.585Z" transform="translate(-269.931 -301.876)" fill="#00fae3"/>
              <path id="Path_13374-2" data-name="Path 13374" d="M284.714,313.808l-4.464-2.578v-5.27l4.464,2.585Z" transform="translate(-269.931 -301.876)" opacity="0.35"/>
              <path id="Path_13375-2" data-name="Path 13375" d="M296.14,353l.692-.548c.221-.175.487-.388.76-.646s.631-.532.981-.867.76-.677,1.125-1.072l.593-.608.593-.654c.205-.213.4-.449.6-.684s.4-.479.593-.76c.373-.5.76-1.011,1.11-1.521s.677-1.08,1-1.62a12.85,12.85,0,0,0,.814-1.658c.228-.555.426-1.1.631-1.612.076-.259.152-.517.221-.76.038-.122.076-.243.106-.365s.053-.243.076-.357a11.017,11.017,0,0,0,.243-1.285c.053-.388.114-.722.122-1a5.942,5.942,0,0,1,.053-.882v.882a15.737,15.737,0,0,1-.289,2.281,2.189,2.189,0,0,1-.068.365c-.023.129-.068.243-.1.365-.068.259-.137.517-.213.76-.19.517-.35,1.08-.608,1.627s-.517,1.118-.806,1.681a14.534,14.534,0,0,1-1,1.643c-.365.525-.76,1.057-1.133,1.521-.2.251-.4.487-.6.76a6.08,6.08,0,0,1-.608.692l-.608.654-.608.593a11.84,11.84,0,0,1-1.141,1.049c-.38.289-.715.593-1.019.844s-.57.456-.8.616Z" transform="translate(-273.738 -309.097)" fill="#fff"/>
              <path id="Path_13376-2" data-name="Path 13376" d="M286.12,308.057l7.118-4.137v5.262l-.479-4.41Z" transform="translate(-271.337 -301.388)" fill="#fafafa"/>
              <path id="Path_13377-2" data-name="Path 13377" d="M286.87,363.73l.373,4.57,6.677-3.376-7.049,4.068Z" transform="translate(-271.517 -315.716)" fill="#fafafa"/>
            </g>
          </g>
          <path id="Path_13378-2" data-name="Path 13378" d="M301.532,272.522l.593-7.832.6,7.832,7.832.593-7.832.6-.6,7.832-.593-7.832-7.832-.6Z" transform="translate(-250.728 -264.69)" fill="#fff"/>
          <path id="Path_13379-2" data-name="Path 13379" d="M310.885,282.245l.289-3.795.289,3.795,3.794.289-3.794.289-.289,3.795-.289-3.795-3.795-.289Z" transform="translate(-253.936 -267.987)" fill="#fff"/>
        </g>
      </g>
      <g id="freepik--Coin--inject-82-5" data-name="freepik--Coin--inject-82" transform="translate(1172.81 175.088)">
        <g id="freepik--Con--inject-82-3" data-name="freepik--Con--inject-82" transform="translate(237.19 264.69)">
          <g id="freepik--coin--inject-82-6" data-name="freepik--coin--inject-82" transform="translate(0 2.183)">
            <path id="Path_13335-3" data-name="Path 13335" d="M283.992,278.238l1.8-3.733-7.8-4.513h0a12.347,12.347,0,0,0-2.947-1.23c-.36-.1-.726-.174-1.1-.24a14.513,14.513,0,0,0-5.5.15,18.45,18.45,0,0,0-1.987.534A19.421,19.421,0,0,0,264.4,270a24.846,24.846,0,0,0-2.635,1.344c-.93.546-1.843,1.146-2.749,1.8q-1.017.738-2.011,1.584c-9.729,8.2-17.387,22.813-19.332,36.869-.138.96-.24,1.909-.318,2.857-.114,1.356-.168,2.707-.168,4.039,0,1.092.048,2.149.132,3.163.072.888.168,1.74.3,2.563s.276,1.614.456,2.4h0a22.933,22.933,0,0,0,2.275,6c.21.372.426.738.654,1.086a14.548,14.548,0,0,0,3.463,3.745,13.328,13.328,0,0,0,1.278.834h0l7.4,4.267,1.638-3.415c.432-.1.876-.21,1.314-.348a23.694,23.694,0,0,0,5.149-2.281,31.454,31.454,0,0,0,3-2.011,38.374,38.374,0,0,0,3.709-3.163c8.108-7.8,14.494-20,16.835-32.157a54.372,54.372,0,0,0,.762-5.4c.138-1.488.2-2.971.2-4.429a37.986,37.986,0,0,0-.516-6.284A27.093,27.093,0,0,0,283.992,278.238Z" transform="translate(-237.19 -268.327)" fill="#317186"/>
            <path id="Path_13336-3" data-name="Path 13336" d="M241,322.54l15.875,9.165,2.089-6.038-15.887-9.177C242.272,318.477,241.6,320.5,241,322.54Z" transform="translate(-238.713 -287.584)" fill="#fff" opacity="0.25"/>
            <path id="Path_13337-3" data-name="Path 13337" d="M298.261,269.991h0a12.347,12.347,0,0,0-2.947-1.23c-.36-.1-.726-.174-1.1-.24a14.513,14.513,0,0,0-5.5.15c-.24.048-.486.114-.732.174l16.331,9.435a.084.084,0,0,0,0-.042l1.8-3.733Z" transform="translate(-257.497 -268.327)" fill="#fff" opacity="0.25"/>
            <path id="Path_13338-3" data-name="Path 13338" d="M286.339,298.917l2.095-2.509-23.8-13.708c-.756.75-1.5,1.542-2.221,2.359Z" transform="translate(-247.274 -274.074)" fill="#fff" opacity="0.25"/>
            <path id="Path_13339-3" data-name="Path 13339" d="M254,294.449l20.622,11.907,2.269-5.936L257.685,289.33a58.312,58.312,0,0,0-3.685,5.12Z" transform="translate(-243.911 -276.725)" fill="#fff" opacity="0.25"/>
            <path id="Path_13340-3" data-name="Path 13340" d="M278.6,269.991h0a12.347,12.347,0,0,0-2.947-1.23c-.36-.1-.726-.174-1.1-.24a14.513,14.513,0,0,0-5.5.15,18.454,18.454,0,0,0-1.987.534,19.418,19.418,0,0,0-2.053.792,24.846,24.846,0,0,0-2.635,1.344c-.93.546-1.843,1.146-2.749,1.8q-1.017.738-2.011,1.584c-9.045,7.634-16.295,20.832-18.809,33.964l33.124,19.128a64.591,64.591,0,0,0,13.54-28.628,54.4,54.4,0,0,0,.762-5.4c.138-1.488.2-2.971.2-4.429a37.986,37.986,0,0,0-.516-6.284,27.089,27.089,0,0,0-1.272-4.849l1.8-3.733Z" transform="translate(-237.838 -268.327)" fill="#11ebd8" opacity="0.4"/>
            <path id="Path_13341-3" data-name="Path 13341" d="M253.137,369.438l1.638-3.415c.432-.1.876-.21,1.314-.348a23.7,23.7,0,0,0,5.149-2.281,31.46,31.46,0,0,0,3-2.011,38.371,38.371,0,0,0,3.709-3.163,47.62,47.62,0,0,0,3.295-3.529L238.126,335.57c-.186.966-.348,1.933-.48,2.9s-.24,1.909-.318,2.857c-.114,1.356-.168,2.707-.168,4.039,0,1.092.048,2.149.132,3.163.072.888.168,1.741.3,2.563s.276,1.614.456,2.4h0a22.933,22.933,0,0,0,2.275,6c.21.372.426.738.654,1.086a14.548,14.548,0,0,0,3.463,3.745,13.322,13.322,0,0,0,1.278.834h0Z" transform="translate(-231.176 -295.213)" opacity="0.1"/>
            <path id="Path_13342-3" data-name="Path 13342" d="M241.247,372.537c.21.372.426.738.654,1.086a14.547,14.547,0,0,0,3.463,3.745,13.322,13.322,0,0,0,1.278.834h0l7.394,4.261,1.638-3.415h.066l.12-1.4-16.451-9.5A22,22,0,0,0,241.247,372.537Z" transform="translate(-238.078 -308.239)" opacity="0.1"/>
            <path id="Path_13343-3" data-name="Path 13343" d="M298.756,290.9a26.3,26.3,0,0,0-1.831-6.242,16.084,16.084,0,0,0-4.8-6.35,12.225,12.225,0,0,0-4.309-2.131c-.36-.1-.726-.174-1.1-.24a14.513,14.513,0,0,0-5.5.15,18.459,18.459,0,0,0-1.987.534,21.347,21.347,0,0,0-2.053.786,26.78,26.78,0,0,0-2.635,1.35c-.93.546-1.843,1.146-2.749,1.8q-1.017.738-2,1.584c-9.717,8.192-17.357,22.807-19.3,36.863-.132.954-.24,1.909-.318,2.857-.114,1.356-.168,2.707-.162,4.039,0,1.092.048,2.149.126,3.163.072.882.174,1.741.3,2.563s.282,1.614.462,2.4h0a23.142,23.142,0,0,0,2.269,6c.21.372.426.738.654,1.086a14.776,14.776,0,0,0,3.469,3.745,12.334,12.334,0,0,0,6.842,2.455,16.036,16.036,0,0,0,5.468-.714,24.006,24.006,0,0,0,5.15-2.281,31.45,31.45,0,0,0,3-2.011,38.4,38.4,0,0,0,3.715-3.163c8.1-7.8,14.488-20.01,16.8-32.157a53.626,53.626,0,0,0,.762-5.4c.138-1.488.2-2.971.2-4.423a37.986,37.986,0,0,0-.474-6.266Z" transform="translate(-242.315 -271.294)" fill="#00fae3"/>
            <path id="Path_13344-3" data-name="Path 13344" d="M298.756,290.9a26.3,26.3,0,0,0-1.831-6.242,16.084,16.084,0,0,0-4.8-6.35,12.225,12.225,0,0,0-4.309-2.131c-.36-.1-.726-.174-1.1-.24a14.513,14.513,0,0,0-5.5.15,18.459,18.459,0,0,0-1.987.534,21.347,21.347,0,0,0-2.053.786,26.78,26.78,0,0,0-2.635,1.35c-.93.546-1.843,1.146-2.749,1.8q-1.017.738-2,1.584c-9.717,8.192-17.357,22.807-19.3,36.863-.132.954-.24,1.909-.318,2.857-.114,1.356-.168,2.707-.162,4.039,0,1.092.048,2.149.126,3.163.072.882.174,1.741.3,2.563s.282,1.614.462,2.4h0a23.142,23.142,0,0,0,2.269,6c.21.372.426.738.654,1.086a14.776,14.776,0,0,0,3.469,3.745,12.334,12.334,0,0,0,6.842,2.455,16.036,16.036,0,0,0,5.468-.714,24.006,24.006,0,0,0,5.15-2.281,31.45,31.45,0,0,0,3-2.011,38.4,38.4,0,0,0,3.715-3.163c8.1-7.8,14.488-20.01,16.8-32.157a53.626,53.626,0,0,0,.762-5.4c.138-1.488.2-2.971.2-4.423a37.986,37.986,0,0,0-.474-6.266Z" transform="translate(-242.315 -271.294)" fill="#175867"/>
            <path id="Path_13345-3" data-name="Path 13345" d="M250.966,343q-.288,1.458-.486,2.917c-.132.954-.24,1.909-.318,2.857-.114,1.356-.168,2.707-.162,4.039,0,1.092.048,2.149.126,3.163.072.882.174,1.74.3,2.563s.282,1.614.462,2.4h0a23.144,23.144,0,0,0,2.269,6c.21.372.426.738.654,1.086a14.775,14.775,0,0,0,3.469,3.745,12.333,12.333,0,0,0,6.842,2.455,16.035,16.035,0,0,0,5.468-.714,24.008,24.008,0,0,0,5.149-2.281,31.019,31.019,0,0,0,2.689-1.8Z" transform="translate(-249.999 -302.385)" opacity="0.05"/>
            <path id="Path_13346-3" data-name="Path 13346" d="M252.24,375.64a21.846,21.846,0,0,0,1.8,4.327c.21.372.426.738.654,1.086a14.776,14.776,0,0,0,3.469,3.745,12.279,12.279,0,0,0,5.534,2.311Z" transform="translate(-243.207 -311.234)" opacity="0.05"/>
            <path id="Path_13347-3" data-name="Path 13347" d="M255.841,323.9c-.792,1.981-1.482,4-2.071,6.038l28.808,28.808.4-.366a48.016,48.016,0,0,0,3.529-3.823Z" transform="translate(-243.819 -290.547)" fill="#fff" opacity="0.15"/>
            <path id="Path_13348-3" data-name="Path 13348" d="M270.461,296.72a58.326,58.326,0,0,0-3.691,5.119L298.5,333.565q1.548-2.911,2.821-6Z" transform="translate(-249.017 -279.679)" fill="#fff" opacity="0.15"/>
            <path id="Path_13349-3" data-name="Path 13349" d="M277.429,290.08c-.762.756-1.512,1.548-2.239,2.4l30.333,30.333q.63-1.7,1.2-3.433Z" transform="translate(-252.383 -277.025)" fill="#fff" opacity="0.15"/>
            <path id="Path_13350-3" data-name="Path 13350" d="M319.529,294.96h0c-.03-.6-.078-1.158-.132-1.723a4.5,4.5,0,0,0-.06-.564c-.024-.186-.042-.378-.072-.6-.054-.414-.114-.828-.18-1.2a26.292,26.292,0,0,0-1.831-6.242,16.084,16.084,0,0,0-4.8-6.35,12.225,12.225,0,0,0-4.309-2.131c-.36-.1-.726-.174-1.1-.24a14.512,14.512,0,0,0-5.5.15c-.24.048-.486.114-.732.174Z" transform="translate(-262.627 -271.282)" fill="#fff" opacity="0.15"/>
            <path id="Path_13351-3" data-name="Path 13351" d="M297.173,307c0,12.97-7.562,27.938-17.123,34.306-.408.27-.822.528-1.236.768-10.137,5.852-18.353-.354-18.353-13.876s8.216-29.222,18.353-35.074c.414-.24.828-.456,1.236-.654C289.592,287.787,297.173,294.035,297.173,307Z" transform="translate(-246.494 -277.361)" fill="#00fae3"/>
            <path id="Path_13352-3" data-name="Path 13352" d="M297.173,307c0,12.97-7.562,27.938-17.123,34.306-.408.27-.822.528-1.236.768-10.137,5.852-18.353-.354-18.353-13.876s8.216-29.222,18.353-35.074c.414-.24.828-.456,1.236-.654C289.592,287.787,297.173,294.035,297.173,307Z" transform="translate(-246.494 -277.361)" opacity="0.4"/>
            <path id="Path_13353-3" data-name="Path 13353" d="M296.916,308.295v1.26c-.468,12.087-7.508,25.639-16.343,31.521l-.24.156c-.306.2-.6.4-.936.6a15.166,15.166,0,0,1-5.51,2,9.293,9.293,0,0,1-9.693-4.933,19.2,19.2,0,0,1-2.269-8.366c-.042-.636-.066-1.29-.066-1.963s0-1.242.054-1.873a36.3,36.3,0,0,1,.444-3.985c1.548-9.339,6.53-18.863,12.868-24.607a25.63,25.63,0,0,1,2.8-2.209c.45-.312.912-.6,1.374-.87a8.932,8.932,0,0,1,1.2-.6l.33-.156a11.871,11.871,0,0,1,7.256-1.152c3.691.708,6.536,3.655,7.9,8.354A24.806,24.806,0,0,1,296.916,308.295Z" transform="translate(-247.054 -278.183)" fill="#00fae3"/>
            <path id="Path_13354-3" data-name="Path 13354" d="M296.916,308.295v1.26c-.468,12.087-7.508,25.639-16.343,31.521l-.24.156c-.306.2-.6.4-.936.6a15.166,15.166,0,0,1-5.51,2,9.293,9.293,0,0,1-9.693-4.933,19.2,19.2,0,0,1-2.269-8.366c-.042-.636-.066-1.29-.066-1.963s0-1.242.054-1.873a36.3,36.3,0,0,1,.444-3.985c1.548-9.339,6.53-18.863,12.868-24.607a25.63,25.63,0,0,1,2.8-2.209c.45-.312.912-.6,1.374-.87a8.932,8.932,0,0,1,1.2-.6l.33-.156a11.871,11.871,0,0,1,7.256-1.152c3.691.708,6.536,3.655,7.9,8.354A24.806,24.806,0,0,1,296.916,308.295Z" transform="translate(-247.054 -278.183)" opacity="0.5"/>
            <path id="Path_13355-3" data-name="Path 13355" d="M293.941,307.847v-1.26a24.806,24.806,0,0,0-.882-6.842,12.958,12.958,0,0,0-3.775-6.338,9.242,9.242,0,0,0-1.2-.324,11.872,11.872,0,0,0-7.256,1.152l-.33.156c-.384.192-.78.4-1.2.6a11.725,11.725,0,0,0-1.374.87,25.628,25.628,0,0,0-2.8,2.209c-6.338,5.72-11.319,15.244-12.868,24.607a36.308,36.308,0,0,0-.444,3.985c-.036.63-.054,1.248-.054,1.873a19.614,19.614,0,0,0,.066,1.963,19.206,19.206,0,0,0,2.269,8.366,11.14,11.14,0,0,0,2.311,2.839,9.6,9.6,0,0,0,4.471.4,15.166,15.166,0,0,0,5.51-2,9.858,9.858,0,0,0,.936-.6l.24-.156C286.433,333.486,293.473,319.934,293.941,307.847Z" transform="translate(-247.014 -278.167)" fill="#00fae3"/>
            <path id="Path_13356-3" data-name="Path 13356" d="M293.941,307.847v-1.26a24.806,24.806,0,0,0-.882-6.842,12.958,12.958,0,0,0-3.775-6.338,9.242,9.242,0,0,0-1.2-.324,11.872,11.872,0,0,0-7.256,1.152l-.33.156c-.384.192-.78.4-1.2.6a11.725,11.725,0,0,0-1.374.87,25.628,25.628,0,0,0-2.8,2.209c-6.338,5.72-11.319,15.244-12.868,24.607a36.308,36.308,0,0,0-.444,3.985c-.036.63-.054,1.248-.054,1.873a19.614,19.614,0,0,0,.066,1.963,19.206,19.206,0,0,0,2.269,8.366,11.14,11.14,0,0,0,2.311,2.839,9.6,9.6,0,0,0,4.471.4,15.166,15.166,0,0,0,5.51-2,9.858,9.858,0,0,0,.936-.6l.24-.156C286.433,333.486,293.473,319.934,293.941,307.847Z" transform="translate(-247.014 -278.167)" opacity="0.25"/>
            <path id="Path_13357-3" data-name="Path 13357" d="M286.594,275.926c-10.6-1.2-19.206,7.586-24.979,15.478-8.312,12.25-13.576,27.764-10.7,42.612v-.03c.936,4.123,2.827,8.264,6.26,10.887-3.511-2.575-5.546-6.71-6.53-10.863v.03c-2.647-12.141.684-24.9,6.242-35.764C262.828,287.534,272.91,274.486,286.594,275.926Z" transform="translate(-242.2 -271.321)" fill="#f5f5f5"/>
            <g id="freepik--money-sign--inject-82-3" data-name="freepik--money-sign--inject-82" transform="translate(17.699 19.363)">
              <path id="Path_13358-3" data-name="Path 13358" d="M295.453,318.694l-3.523-2.035,6.812-5.81,3.523,2.029Z" transform="translate(-276.776 -304.692)" opacity="0.35"/>
              <path id="Path_13359-3" data-name="Path 13359" d="M295.027,325.747c-1.8-1.278-4.927-.312-7.574.522-.636.21-1.2.4-1.734.564a3.253,3.253,0,0,0-.258,1.2c0,2.053,1.741,1.494,5.522.246a28.31,28.31,0,0,1,3.9-1.026c.12,1.044.84,1.993,3.667.5Z" transform="translate(-274.189 -310.401)" opacity="0.35"/>
              <path id="Path_13360-3" data-name="Path 13360" d="M284.523,366.524,281,364.489V360.33l3.523,2.041Z" transform="translate(-272.406 -324.476)" opacity="0.45"/>
              <path id="Path_13361-3" data-name="Path 13361" d="M291.472,343.41c0,1.656-1.242,3.127-3.085,4.2-2.935,1.7-4.075.312-4.327-1.044l-.6-.36a6.6,6.6,0,0,0,1.428-.636,6.254,6.254,0,0,0,2.863-3.031C289.906,341.831,291.472,341.549,291.472,343.41Z" transform="translate(-273.389 -317.146)" opacity="0.35"/>
              <path id="Path_13362-3" data-name="Path 13362" d="M271.673,359.327a2.335,2.335,0,0,0-1.284-.312,6.61,6.61,0,0,1-.192-.66l-3.517-2.035a4.345,4.345,0,0,0,1.975,3h0l3.517,2.029A1.657,1.657,0,0,0,271.673,359.327Z" transform="translate(-266.68 -322.872)" opacity="0.35"/>
              <path id="Path_13363-3" data-name="Path 13363" d="M283.485,318.493c-3.781,1.248-5.522,1.8-5.522-.246a3.253,3.253,0,0,1,.258-1.2c-2.581.8-3.781.894-3.781-.81,0-1.248.846-2.8,3.181-4.153,2.485-1.44,3.877-1.1,4.2.5l6.812-5.816a.7.7,0,0,0-.1-.246,4.25,4.25,0,0,0,1.2-.468l-2.809-1.668-.27-.162h-.042a4.747,4.747,0,0,0-2.677-.438,11.757,11.757,0,0,0-3.523.966v-.072l3.523-2.053-3.523-2.035h0l-2.4,1.386-3.181,1.861h0v4.153c-4.771,3.475-7.754,8.012-7.754,12.922,0,2.239.6,3.505,1.578,4.147h.048a2.177,2.177,0,0,0,.258.144l2.947,1.662a2.137,2.137,0,0,0-.18-1.326,16.755,16.755,0,0,0,2.761-.6c3.6-1.08,6.764-2.779,6.764-.126a3.337,3.337,0,0,1-.216,1.164c2.173-.708,3.739-.99,3.739.87,0,1.656-1.242,3.127-3.085,4.2-2.935,1.7-4.075.312-4.327-1.044h0l-.6-.36-2.9-1.674-7.16,6.062,3.517,2.035a6.261,6.261,0,0,0,.546,1.5,11.4,11.4,0,0,0,4.537-1.128v1.686l5.57-.762V333.2c4.8-3.553,8.15-8.342,8.15-13.348a6.878,6.878,0,0,0-.4-2.509A19.553,19.553,0,0,0,283.485,318.493Z" transform="translate(-266.692 -300.59)" fill="#00fae3"/>
              <path id="Path_13364-3" data-name="Path 13364" d="M283.485,318.493c-3.781,1.248-5.522,1.8-5.522-.246a3.253,3.253,0,0,1,.258-1.2c-2.581.8-3.781.894-3.781-.81,0-1.248.846-2.8,3.181-4.153,2.485-1.44,3.877-1.1,4.2.5l6.812-5.816a.7.7,0,0,0-.1-.246,4.25,4.25,0,0,0,1.2-.468l-2.809-1.668-.27-.162h-.042a4.747,4.747,0,0,0-2.677-.438,11.757,11.757,0,0,0-3.523.966v-.072l3.523-2.053-3.523-2.035h0l-2.4,1.386-3.181,1.861h0v4.153c-4.771,3.475-7.754,8.012-7.754,12.922,0,2.239.6,3.505,1.578,4.147h.048a2.177,2.177,0,0,0,.258.144l2.947,1.662a2.137,2.137,0,0,0-.18-1.326,16.755,16.755,0,0,0,2.761-.6c3.6-1.08,6.764-2.779,6.764-.126a3.337,3.337,0,0,1-.216,1.164c2.173-.708,3.739-.99,3.739.87,0,1.656-1.242,3.127-3.085,4.2-2.935,1.7-4.075.312-4.327-1.044h0l-.6-.36-2.9-1.674-7.16,6.062,3.517,2.035a6.261,6.261,0,0,0,.546,1.5,11.4,11.4,0,0,0,4.537-1.128v1.686l5.57-.762V333.2c4.8-3.553,8.15-8.342,8.15-13.348a6.878,6.878,0,0,0-.4-2.509A19.553,19.553,0,0,0,283.485,318.493Z" transform="translate(-266.692 -300.59)" opacity="0.15"/>
              <g id="Group_16130-3" data-name="Group 16130" transform="translate(0.24 7.382)" opacity="0.2">
                <path id="Path_13365-3" data-name="Path 13365" d="M274.984,312.89a22.025,22.025,0,0,0-6.362,7.676,13.107,13.107,0,0,0-1.2,4.8,8.4,8.4,0,0,0,.15,2.485,3.409,3.409,0,0,0,1.242,2.1,3.385,3.385,0,0,1-1.446-2.047,8.7,8.7,0,0,1-.282-2.551,12.862,12.862,0,0,1,1.152-4.975,16.943,16.943,0,0,1,2.869-4.2,20.829,20.829,0,0,1,3.877-3.289Z" transform="translate(-267.08 -312.89)"/>
              </g>
              <path id="Path_13366-3" data-name="Path 13366" d="M290.905,318.7a19.555,19.555,0,0,0-5.125,1.14c-3.781,1.248-5.522,1.8-5.522-.246a3.253,3.253,0,0,1,.258-1.2,6.571,6.571,0,0,1,2.923-2.929c2.485-1.446,3.877-1.1,4.2.5l6.812-5.816a3.979,3.979,0,0,0-3.955-3.031,10.551,10.551,0,0,0-4.249,1V303.96l-3.523,2.047-2.095,1.2v4.153c-4.771,3.475-7.754,8.018-7.754,12.922a7.154,7.154,0,0,0,.426,2.677c1.05,2.629,3.937,2.269,6.98,1.374,1.068-.318,2.1-.7,3-1,2.173-.708,3.739-.99,3.739.87,0,1.656-1.242,3.127-3.085,4.2-2.935,1.7-4.075.312-4.327-1.044l-7.16,6.062A6.116,6.116,0,0,0,273,338.92c.93,1.753,2.593,2.233,4.537,1.975a13.582,13.582,0,0,0,3.523-1.056v4.153l5.564-3.211v-4.2c4.8-3.547,8.156-8.342,8.156-13.348C294.824,319.637,293.114,318.646,290.905,318.7Z" transform="translate(-268.987 -301.937)" fill="#00fae3"/>
              <g id="Group_16131-3" data-name="Group 16131" transform="translate(3.463 2.023)" opacity="0.1">
                <path id="Path_13367-3" data-name="Path 13367" d="M290.905,318.7a19.555,19.555,0,0,0-5.125,1.14c-3.781,1.248-5.522,1.8-5.522-.246a3.253,3.253,0,0,1,.258-1.2,6.571,6.571,0,0,1,2.923-2.929c2.485-1.446,3.877-1.1,4.2.5l6.812-5.816a3.979,3.979,0,0,0-3.955-3.031,10.551,10.551,0,0,0-4.249,1V303.96l-3.523,2.047-2.095,1.2v4.153c-4.771,3.475-7.754,8.018-7.754,12.922a7.154,7.154,0,0,0,.426,2.677c1.05,2.629,3.937,2.269,6.98,1.374,1.068-.318,2.1-.7,3-1,2.173-.708,3.739-.99,3.739.87,0,1.656-1.242,3.127-3.085,4.2-2.935,1.7-4.075.312-4.327-1.044l-7.16,6.062A6.116,6.116,0,0,0,273,338.92c.93,1.753,2.593,2.233,4.537,1.975a13.582,13.582,0,0,0,3.523-1.056v4.153l5.564-3.211v-4.2c4.8-3.547,8.156-8.342,8.156-13.348C294.824,319.637,293.114,318.646,290.905,318.7Z" transform="translate(-272.45 -303.96)" fill="#23304e"/>
              </g>
              <path id="Path_13368-3" data-name="Path 13368" d="M280.707,350.31l-4.387,3.721,4.879,4.885c.48-.162.966-.342,1.452-.552v2l1.362,1.368,4.2-2.4v-1.482Z" transform="translate(-270.534 -320.469)" fill="#fff" opacity="0.15"/>
              <path id="Path_13369-3" data-name="Path 13369" d="M298.986,328.518a19.553,19.553,0,0,0-5.125,1.14l-1.2.4,8.8,8.8a12.861,12.861,0,0,0,1.47-5.8,8.282,8.282,0,0,0-.162-1.7l-2.791-2.791A5.625,5.625,0,0,0,298.986,328.518Z" transform="translate(-277.068 -311.755)" fill="#fff" opacity="0.15"/>
              <path id="Path_13370-3" data-name="Path 13370" d="M285.021,319.445a8.584,8.584,0,0,1,2.065-1.62c2.485-1.446,3.877-1.1,4.2.5l.75-.642-7.76-7.76v3.817a24.786,24.786,0,0,0-2.707,2.281Z" transform="translate(-272.633 -304.32)" fill="#fff" opacity="0.15"/>
              <path id="Path_13371-3" data-name="Path 13371" d="M294.718,307.825a14.252,14.252,0,0,0-1.873.648v-2.515l-1.038-1.038-2.485,1.446-.432.252,7.7,7.694,2.491-2.125Z" transform="translate(-275.56 -302.321)" fill="#fff" opacity="0.15"/>
              <path id="Path_13372-3" data-name="Path 13372" d="M276.741,343.385,273.35,340a5.714,5.714,0,0,0,.336,1.344A3.121,3.121,0,0,0,276.741,343.385Z" transform="translate(-269.347 -316.347)" fill="#fff" opacity="0.15"/>
              <path id="Path_13373-3" data-name="Path 13373" d="M283.773,312.154l-3.523-2.035V305.96L283.773,308Z" transform="translate(-272.106 -302.737)" fill="#00fae3"/>
              <path id="Path_13374-3" data-name="Path 13374" d="M283.773,312.154l-3.523-2.035V305.96L283.773,308Z" transform="translate(-272.106 -302.737)" opacity="0.35"/>
              <path id="Path_13375-3" data-name="Path 13375" d="M296.14,349.442l.546-.432c.174-.138.384-.306.6-.51s.5-.42.774-.684.6-.534.888-.846l.468-.48.468-.516c.162-.168.318-.354.474-.54s.312-.378.468-.6c.294-.4.6-.8.876-1.2s.534-.852.786-1.278a10.14,10.14,0,0,0,.642-1.308c.18-.438.336-.864.5-1.272.06-.2.12-.408.174-.6.03-.1.06-.192.084-.288s.042-.192.06-.282a8.693,8.693,0,0,0,.192-1.014c.042-.306.09-.57.1-.792a4.694,4.694,0,0,1,.042-.7v.7a12.419,12.419,0,0,1-.228,1.8,1.728,1.728,0,0,1-.054.288c-.018.1-.054.192-.078.288-.054.2-.108.408-.168.6-.15.408-.276.852-.48,1.284s-.408.882-.636,1.326a11.462,11.462,0,0,1-.786,1.3c-.288.414-.6.834-.894,1.2-.156.2-.318.384-.474.6a4.8,4.8,0,0,1-.48.546l-.48.516-.48.468a9.351,9.351,0,0,1-.9.828c-.3.228-.564.468-.8.666s-.45.36-.63.486Z" transform="translate(-278.459 -314.788)" fill="#fff"/>
              <path id="Path_13376-3" data-name="Path 13376" d="M286.12,307.185l5.618-3.265v4.153l-.378-3.481Z" transform="translate(-274.453 -301.921)" fill="#fafafa"/>
              <path id="Path_13377-3" data-name="Path 13377" d="M286.87,363.73l.294,3.607,5.27-2.665-5.564,3.211Z" transform="translate(-274.753 -325.835)" fill="#fafafa"/>
            </g>
          </g>
          <path id="Path_13378-3" data-name="Path 13378" d="M299.882,270.872l.468-6.182.474,6.182,6.182.468-6.182.474L300.35,278l-.468-6.182-6.182-.474Z" transform="translate(-259.784 -264.69)" fill="#fff"/>
          <path id="Path_13379-3" data-name="Path 13379" d="M310.085,281.445l.228-2.995.228,2.995,2.995.228-2.995.228-.228,2.995-.228-2.995-2.995-.228Z" transform="translate(-265.138 -270.192)" fill="#fff"/>
        </g>
      </g>
    </g>
  </g>
</svg>
