<svg xmlns="http://www.w3.org/2000/svg" width="69" height="92.988" viewBox="0 0 69 92.988">
  <g id="Group_16150" data-name="Group 16150" transform="translate(-587 -887)">
    <g id="Group_16147" data-name="Group 16147" transform="translate(589 887)">
      <path id="Path_13190" data-name="Path 13190" d="M148.52,775.241a31.53,31.53,0,0,1-6.116,18.711,33.044,33.044,0,0,1-6.839,6.839h-.052l-11.846-11.846.026-.026,6.839-6.839,4.9,4.9a21.942,21.942,0,0,0,3.407-11.742c0-.465-.026-.929-.052-1.394a21.468,21.468,0,0,0-3.355-10.323l-11.717,11.742-6.839,6.839-.026.026L98.221,763.5a21.819,21.819,0,0,0-3.329,10.349c-.026.465-.052.929-.052,1.394a21.719,21.719,0,0,0,3.407,11.742l4.9-4.9,6.839,6.839.026.026L98.169,800.791h-.052a33.046,33.046,0,0,1-6.839-6.839,31.706,31.706,0,0,1-6.116-18.711,31.305,31.305,0,0,1,1.5-9.626,31.626,31.626,0,0,1,4.62-9.058V756.5a33.046,33.046,0,0,1,6.839-6.839l6.968,6.968L116.854,768.4,128.6,756.634l6.968-6.968A33.045,33.045,0,0,1,142.4,756.5v.052a30.986,30.986,0,0,1,4.62,9.058A31.306,31.306,0,0,1,148.52,775.241Z" transform="translate(-85.162 -749.666)" fill="#c9d5f8"/>
      <path id="Path_13191" data-name="Path 13191" d="M101.974,769.065l.026.026-4.878,4.878h-.052a22.175,22.175,0,0,1-6.839-6.839l4.9-4.9Z" transform="translate(-77.148 -729.812)" fill="#c9d5f8"/>
      <path id="Path_13192" data-name="Path 13192" d="M106.947,762.226l4.9,4.9a22.175,22.175,0,0,1-6.839,6.839h-.052l-4.878-4.878.026-.026Z" transform="translate(-61.577 -729.812)" fill="#c9d5f8"/>
      <path id="Path_13193" data-name="Path 13193" d="M127.437,759.205v.052L115.72,771l-6.839,6.839-.026.026L90.222,759.231l.026-.026a22.171,22.171,0,0,1,6.839-6.839l11.768,11.768L120.6,752.366A22.172,22.172,0,0,1,127.437,759.205Z" transform="translate(-77.163 -745.398)" fill="#c9d5f8"/>
      <path id="Path_13194" data-name="Path 13194" d="M119.972,775.267l-6.839,6.839-.026-.026-6.839-6.839L87.532,756.5a33.045,33.045,0,0,1,6.839-6.839l6.968,6.968L113.107,768.4l6.839,6.839Z" transform="translate(-81.416 -749.666)" fill="#c9d5f8"/>
      <path id="Path_13195" data-name="Path 13195" d="M118.8,774.1a33.049,33.049,0,0,1-6.839,6.839L105,773.969l-4.9-4.9,6.839-6.839Z" transform="translate(-61.561 -730.226)" fill="#c9d5f8"/>
      <path id="Path_13196" data-name="Path 13196" d="M99.4,762.226l6.839,6.839-4.9,4.9-6.968,6.968a33.048,33.048,0,0,1-6.839-6.839Z" transform="translate(-81.416 -729.812)" fill="#c9d5f8"/>
      <path id="Path_13197" data-name="Path 13197" d="M127.2,756.5l-6.968,6.968-11.742,11.768-6.839,6.839-.026.026-6.839-6.839,6.865-6.865,11.742-11.768,6.968-6.968A33.045,33.045,0,0,1,127.2,756.5Z" transform="translate(-69.955 -749.666)" fill="#c9d5f8"/>
      <path id="Path_13198" data-name="Path 13198" d="M97.3,759.278a21.819,21.819,0,0,0-3.329,10.349l-8.233-8.233a31.624,31.624,0,0,1,4.62-9.058Z" transform="translate(-84.245 -745.446)" fill="#c9d5f8"/>
      <path id="Path_13199" data-name="Path 13199" d="M116.23,761.395,108,769.627a21.467,21.467,0,0,0-3.355-10.323l6.968-6.968A30.984,30.984,0,0,1,116.23,761.395Z" transform="translate(-54.369 -745.446)" fill="#c9d5f8"/>
    </g>
    <text id="Pot" transform="translate(587 972.988)" fill="#c9d5f8" font-size="28" font-family="Sans-serif, Montserrat-Black, Montserrat" font-weight="800" letter-spacing="0.1em"><tspan x="0" y="0">POT</tspan></text>
  </g>
</svg>
